<svg width="98" height="30" viewBox="0 0 98 30" fill="none" xmlns="http://www.w3.org/2000/svg">
<g clip-path="url(#clip0_1_2679)">
<path d="M27.8095 21.2826C27.6574 20.917 27.5149 20.5326 27.3628 20.2045L26.6595 18.6388L26.631 18.6107C24.5401 14.1107 22.3067 9.53572 19.9401 5.03571L19.8451 4.84821C19.6075 4.40759 19.3699 3.92009 19.1228 3.47009C18.8187 2.93571 18.524 2.36384 18.0393 1.82009C17.5669 1.25115 16.9723 0.792766 16.2984 0.478016C15.6245 0.163266 14.8883 0 14.1427 0C13.3971 0 12.6608 0.163266 11.987 0.478016C11.3131 0.792766 10.7185 1.25115 10.246 1.82009C9.79934 2.36384 9.4667 2.93571 9.16257 3.47009C8.92497 3.95759 8.68737 4.43571 8.44026 4.87634L8.34522 5.06384C6.01673 9.56384 3.74527 14.1388 1.65438 18.6388L1.59735 18.6951C1.38827 19.1826 1.14116 19.6888 0.903559 20.2326C0.751495 20.5607 0.59943 20.917 0.447365 21.3107C0.036822 22.3418 -0.0942774 23.4605 0.0669875 24.5568C0.228252 25.653 0.676315 26.6889 1.36702 27.5623C2.05772 28.4358 2.96722 29.1166 4.00589 29.5377C5.04456 29.9588 6.17654 30.1057 7.29027 29.9638C8.35802 29.8252 9.38617 29.4744 10.3126 28.9326C11.5481 28.2482 12.7361 27.2545 14.0667 25.8201C15.3972 27.2545 16.6137 28.2482 17.8207 28.942C18.9815 29.614 20.2959 29.9849 21.6414 30.0201C23.1994 30.0265 24.7072 29.4766 25.8863 28.472C27.0655 27.4674 27.8363 26.0759 28.0566 24.5545C28.3112 23.4611 28.225 22.3174 27.8095 21.2732V21.2826ZM14.1617 22.8388C12.527 20.7763 11.4625 18.8826 11.1014 17.2607C10.9518 16.6597 10.9195 16.0361 11.0064 15.4232C11.0729 14.9451 11.2535 14.5232 11.5006 14.167C12.0708 13.3513 13.0687 12.8451 14.1617 12.8451C14.6807 12.8294 15.1956 12.9412 15.6601 13.1703C16.1245 13.3993 16.5241 13.7386 16.8228 14.1576C17.0699 14.5326 17.2505 14.9451 17.3075 15.4232C17.4026 15.967 17.3646 16.5951 17.2125 17.2607C16.8513 18.8545 15.7869 20.767 14.1617 22.8388ZM26.2698 24.2263C26.1619 24.9988 25.8506 25.7298 25.367 26.3467C24.8834 26.9635 24.2444 27.4446 23.5137 27.742C22.7914 28.042 21.993 28.1263 21.2137 28.042C20.4534 27.9482 19.693 27.7045 18.9137 27.2545C17.6197 26.4656 16.4562 25.4854 15.4637 24.3482C17.4596 21.9107 18.6666 19.6888 19.1228 17.7107C19.3414 16.7732 19.3699 15.9295 19.2749 15.1513C19.1562 14.4138 18.8774 13.7102 18.4575 13.0888C17.9781 12.415 17.3383 11.8677 16.5942 11.495C15.8501 11.1223 15.0246 10.9356 14.1902 10.9513C12.432 10.9513 10.8638 11.7576 9.91339 13.0795C9.48555 13.6993 9.20905 14.4085 9.10554 15.1513C8.98199 15.9388 9.0105 16.8107 9.25761 17.7107C9.7138 19.6888 10.9493 21.9388 12.9167 24.367C11.9411 25.5259 10.7748 26.5147 9.4667 27.292C8.67786 27.742 7.92704 27.9763 7.16672 28.0701C5.98431 28.2195 4.7899 27.9025 3.84312 27.188C2.89634 26.4735 2.27371 25.4193 2.11057 24.2545C2.01553 23.5045 2.08206 22.7545 2.38619 21.9107C2.48123 21.6107 2.62379 21.3107 2.77585 20.9545C2.98494 20.467 3.23205 19.9607 3.46965 19.4545L3.50767 19.3888C5.56054 14.917 7.80349 10.3513 10.132 5.87946L10.227 5.69197C10.4646 5.24196 10.7022 4.76384 10.9493 4.31384C11.1964 3.83571 11.4625 3.37634 11.8047 3.00134C12.1008 2.65261 12.4709 2.37216 12.8888 2.17973C13.3067 1.9873 13.7623 1.88758 14.2235 1.88758C14.6847 1.88758 15.1402 1.9873 15.5581 2.17973C15.976 2.37216 16.3461 2.65261 16.6422 3.00134C16.9749 3.37634 17.2505 3.83571 17.4976 4.31384C17.7352 4.76384 17.9728 5.25134 18.2199 5.69197L18.315 5.87946C20.6339 10.3513 22.8769 14.917 24.9678 19.3888L24.9963 19.417C25.2434 19.9045 25.4525 20.4482 25.6901 20.917C25.8422 21.2826 25.9942 21.5732 26.0893 21.8826C26.2698 22.7263 26.3649 23.4763 26.2698 24.2263ZM39.4995 22.6326C38.7833 22.6429 38.074 22.4941 37.4241 22.1971C36.7742 21.9001 36.2004 21.4626 35.7454 20.917C34.7228 19.7544 34.1801 18.2555 34.2247 16.717C34.2091 15.145 34.7693 13.6203 35.8024 12.4232C36.2802 11.8707 36.8751 11.4282 37.5451 11.1269C38.215 10.8256 38.9438 10.6729 39.68 10.6795C40.3728 10.6608 41.059 10.8162 41.6742 11.131C42.2893 11.4459 42.8132 11.9099 43.1965 12.4795L43.2916 11.0076H46.0667V22.3326H43.2821L43.187 20.6826C42.7918 21.2907 42.2456 21.7891 41.6002 22.1304C40.9548 22.4717 40.2316 22.6445 39.4995 22.6326ZM40.2218 19.9326C40.773 19.9326 41.2577 19.7826 41.7139 19.5107C42.1321 19.2107 42.4742 18.817 42.7403 18.3388C42.9779 17.8607 43.1015 17.2888 43.1015 16.6513C43.1385 16.0976 43.0293 15.544 42.7844 15.0444C42.5395 14.5448 42.1674 14.1165 41.7044 13.8013C41.2595 13.5279 40.7459 13.383 40.2218 13.383C39.6976 13.383 39.184 13.5279 38.7391 13.8013C38.321 14.1013 37.9788 14.4951 37.7127 14.9732C37.4614 15.5005 37.3377 16.0782 37.3515 16.6607C37.3145 17.2144 37.4238 17.7681 37.6686 18.2677C37.9135 18.7672 38.2857 19.1955 38.7486 19.5107C39.1953 19.7826 39.68 19.9326 40.2218 19.9326ZM50.8188 7.95134C50.8188 8.27946 50.7617 8.57946 50.6097 8.82322C50.4576 9.05759 50.2485 9.27321 49.9729 9.42321C49.6973 9.57321 49.4027 9.62947 49.0985 9.62947C48.7944 9.62947 48.4903 9.57321 48.2147 9.42321C47.954 9.28007 47.7348 9.07352 47.5779 8.82322C47.4307 8.55615 47.3585 8.25515 47.3688 7.95134C47.3688 7.61384 47.4353 7.31384 47.5779 7.07946C47.73 6.79821 47.9485 6.62946 48.2147 6.47946C48.4903 6.32946 48.7849 6.26384 49.0985 6.26384C49.4011 6.25696 49.7002 6.32764 49.9667 6.46896C50.2333 6.61028 50.4581 6.81741 50.6192 7.07009C50.7575 7.34342 50.826 7.64594 50.8188 7.95134ZM47.5874 22.2951V10.9888H50.6097V22.3138H47.5779L47.5874 22.2951ZM58.6881 13.9513V13.9888C58.5455 13.9232 58.3555 13.8951 58.2129 13.867C58.0228 13.8295 57.8708 13.8295 57.6902 13.8295C56.8443 13.8295 56.2076 14.0732 55.7894 14.5795C55.3332 15.0951 55.1241 15.817 55.1241 16.7451V22.3045H52.0923V10.9795H54.877L54.972 12.6951C55.2762 12.0951 55.6373 11.6451 56.1505 11.3076C56.661 10.9797 57.262 10.8159 57.8708 10.8388C58.0894 10.8388 58.2984 10.8576 58.479 10.8951C58.5741 10.9232 58.6311 10.9232 58.6881 10.9513V13.9513ZM59.9046 22.2951V6.33884H62.9269V12.4326C63.3546 11.8888 63.8393 11.467 64.4476 11.1388C65.4105 10.6731 66.5044 10.541 67.5528 10.7638C68.6012 10.9867 69.5429 11.5514 70.226 12.367C71.2508 13.5319 71.7937 15.0346 71.7467 16.5763C71.7623 18.1483 71.2021 19.673 70.169 20.8701C69.6911 21.4226 69.0963 21.8651 68.4263 22.1664C67.7564 22.4677 67.0276 22.6204 66.2913 22.6138C65.5986 22.6325 64.9123 22.4772 64.2972 22.1623C63.682 21.8474 63.1582 21.3834 62.7748 20.8138L62.6798 22.2857L59.9046 22.3138V22.2951ZM65.7496 19.9326C66.2913 19.9326 66.776 19.7826 67.2322 19.5107C67.6504 19.2107 67.9926 18.817 68.2587 18.3388C68.5058 17.8607 68.6198 17.2888 68.6198 16.6513C68.6198 16.0232 68.5058 15.4513 68.2587 14.9732C68.0091 14.5122 67.6584 14.1118 67.2322 13.8013C66.7874 13.5279 66.2738 13.383 65.7496 13.383C65.2255 13.383 64.7118 13.5279 64.267 13.8013C63.8393 14.1013 63.5067 14.4951 63.231 14.9732C62.9797 15.5005 62.8561 16.0782 62.8699 16.6607C62.8328 17.2144 62.9421 17.7681 63.187 18.2677C63.4319 18.7672 63.804 19.1955 64.267 19.5107C64.7137 19.7826 65.1984 19.9326 65.7496 19.9326ZM72.8871 22.3045V10.9795H75.6718L75.7669 12.4513C76.1168 11.8871 76.6132 11.4254 77.2047 11.1139C77.7962 10.8024 78.4613 10.6524 79.1313 10.6795C79.8974 10.6664 80.6504 10.8764 81.2962 11.2833C81.9419 11.6902 82.4517 12.2758 82.7618 12.967C83.0945 13.6795 83.2751 14.5607 83.2751 15.5451V22.3326H80.2433V15.9388C80.2433 15.1513 80.0627 14.5326 79.7015 14.0732C79.3404 13.6232 78.8462 13.3795 78.2189 13.3795C77.7627 13.3795 77.3635 13.4732 77.0119 13.6795C76.6793 13.8951 76.4036 14.167 76.1945 14.5513C75.9831 14.9399 75.8783 15.3762 75.8904 15.817V22.3045H72.8871ZM84.7862 22.3045V6.32946H87.818V12.4232C88.2286 11.8764 88.7628 11.4316 89.3782 11.124C89.9936 10.8165 90.6731 10.6546 91.363 10.6513C92.0792 10.641 92.7885 10.7899 93.4384 11.0869C94.0883 11.3839 94.662 11.8214 95.1171 12.367C96.1346 13.5318 96.6736 15.03 96.6282 16.567C96.6447 18.1391 96.0844 19.6641 95.0506 20.8607C94.5727 21.4133 93.9778 21.8557 93.3079 22.157C92.6379 22.4583 91.9092 22.611 91.1729 22.6045C90.4801 22.6232 89.7939 22.4678 89.1788 22.1529C88.5636 21.838 88.0397 21.374 87.6564 20.8045L87.5709 22.2763L84.7862 22.3045ZM90.6597 19.9326C91.2109 19.9326 91.6956 19.7826 92.1423 19.5107C92.57 19.2107 92.9026 18.817 93.1783 18.3388C93.4159 17.8607 93.5394 17.2888 93.5394 16.6513C93.5765 16.0976 93.4672 15.544 93.2223 15.0444C92.9774 14.5448 92.6053 14.1165 92.1423 13.8013C91.6975 13.5279 91.1838 13.383 90.6597 13.383C90.1356 13.383 89.6219 13.5279 89.1771 13.8013C88.7589 14.1013 88.4167 14.4951 88.1506 14.9732C87.8853 15.4958 87.761 16.077 87.7895 16.6607C87.7524 17.2144 87.8617 17.7681 88.1066 18.2677C88.3515 18.7672 88.7236 19.1955 89.1866 19.5107C89.6333 19.7826 90.0895 19.9326 90.6597 19.9326Z" fill="#FF385C"/>
</g>
<defs>
<clipPath id="clip0_1_2679">
<rect width="96.9412" height="30" fill="white" transform="translate(0.5)"/>
</clipPath>
</defs>
</svg>
