<svg width="98" height="30" viewBox="0 0 98 30" fill="none" xmlns="http://www.w3.org/2000/svg">
<g clip-path="url(#clip0_1_2683)">
<path fill-rule="evenodd" clip-rule="evenodd" d="M60.6404 23.4607C55.007 27.7248 46.8417 29.9998 39.8116 29.9998C29.9541 29.9998 21.0799 26.2558 14.3662 20.0287C13.8388 19.539 14.3114 18.8717 14.9444 19.253C22.1897 23.5821 31.1483 26.1864 40.4023 26.1864C46.6434 26.1864 53.509 24.8604 59.8218 22.1087C60.7754 21.6927 61.573 22.7501 60.6404 23.4607Z" fill="#FF9900"/>
<path fill-rule="evenodd" clip-rule="evenodd" d="M62.9826 20.709C62.2653 19.7644 58.2227 20.2627 56.4082 20.4837C55.8554 20.553 55.771 20.059 56.269 19.7037C59.4887 17.3767 64.7718 18.0483 65.3879 18.8283C66.004 19.6127 65.2275 25.0511 62.202 27.6468C61.7378 28.0454 61.2947 27.8331 61.5015 27.3044C62.1809 25.5624 63.7042 21.658 62.9826 20.709Z" fill="#FF9900"/>
<path fill-rule="evenodd" clip-rule="evenodd" d="M56.5347 3.27592V1.0139C56.5347 0.671563 56.7879 0.441895 57.0917 0.441895H66.9533C67.2698 0.441895 67.523 0.675897 67.523 1.0139V2.95092C67.5188 3.27592 67.2529 3.70059 66.7803 4.37227L61.6702 11.8647C63.5691 11.817 65.5735 12.1073 67.2951 13.104C67.6834 13.3294 67.7889 13.6587 67.8184 13.9837V16.3974C67.8184 16.7267 67.4639 17.1124 67.0926 16.9131C64.0586 15.2794 60.0287 15.1017 56.6739 16.9304C56.3321 17.1211 55.9734 16.7397 55.9734 16.4104V14.118C55.9734 13.7497 55.9777 13.1214 56.3363 12.5624L62.2567 3.8436H57.1044C56.7879 3.8436 56.5347 3.61393 56.5347 3.27592Z" fill="#1D1E25"/>
<path fill-rule="evenodd" clip-rule="evenodd" d="M20.5608 17.39H17.5606C17.2736 17.3684 17.0458 17.1474 17.0247 16.8657V1.0532C17.0247 0.736864 17.2821 0.485526 17.6028 0.485526H20.4005C20.6917 0.498518 20.9237 0.728195 20.9448 1.0142V3.08122H20.9997C21.7297 1.08353 23.1012 0.151855 24.9494 0.151855C26.8272 0.151855 28.0003 1.08353 28.8443 3.08122C29.5701 1.08353 31.22 0.151855 32.9881 0.151855C34.2456 0.151855 35.6213 0.684861 36.461 1.88087C37.4105 3.21122 37.2163 5.1439 37.2163 6.83826L37.2121 16.818C37.2121 17.1344 36.9547 17.39 36.634 17.39H33.638C33.3384 17.3684 33.0978 17.1214 33.0978 16.818V8.43727C33.0978 7.76993 33.1569 6.10592 33.0134 5.47324C32.7898 4.41157 32.1188 4.11256 31.2496 4.11256C30.5238 4.11256 29.7642 4.6109 29.4562 5.40824C29.1481 6.20558 29.1776 7.54026 29.1776 8.43727V16.818C29.1776 17.1344 28.9202 17.39 28.5995 17.39H25.6035C25.2997 17.3684 25.0634 17.1214 25.0634 16.818L25.0591 8.43727C25.0591 6.67359 25.3419 4.07789 23.2109 4.07789C21.0546 4.07789 21.139 6.60858 21.139 8.43727V16.818C21.139 17.1344 20.8815 17.39 20.5608 17.39" fill="#1D1E25"/>
<path fill-rule="evenodd" clip-rule="evenodd" d="M76.013 0.151855C80.4649 0.151855 82.8744 4.0779 82.8744 9.06995C82.8744 13.893 80.2117 17.7194 76.013 17.7194C71.6413 17.7194 69.2614 13.7933 69.2614 8.90095C69.2614 3.97823 71.6709 0.151855 76.013 0.151855ZM76.0383 3.38022C73.8272 3.38022 73.6879 6.47425 73.6879 8.40261C73.6879 10.3353 73.6584 14.4607 76.013 14.4607C78.3381 14.4607 78.4478 11.1326 78.4478 9.10461C78.4478 7.76994 78.393 6.17525 78.0005 4.9099C77.663 3.80923 76.992 3.38022 76.0383 3.38022Z" fill="#1D1E25"/>
<path fill-rule="evenodd" clip-rule="evenodd" d="M88.6471 17.39H85.6595C85.3599 17.3684 85.1194 17.1214 85.1194 16.818L85.1152 1.0012C85.1405 0.710861 85.3895 0.485526 85.6933 0.485526H88.4741C88.7357 0.498518 88.951 0.680529 89.01 0.927531V3.34555H89.0649C89.9046 1.1832 91.0819 0.151855 93.1539 0.151855C94.5 0.151855 95.8123 0.650195 96.6563 2.01521C97.4412 3.28055 97.4412 5.40824 97.4412 6.93792V16.8917C97.4074 17.169 97.1584 17.39 96.8631 17.39H93.8543C93.5801 17.3684 93.3522 17.1604 93.3227 16.8917V8.30294C93.3227 6.57392 93.5168 4.04323 91.4448 4.04323C90.7148 4.04323 90.0439 4.5459 89.7105 5.30857C89.2885 6.27492 89.2337 7.23693 89.2337 8.30294V16.818C89.2295 17.1344 88.9678 17.39 88.6471 17.39" fill="#1D1E25"/>
<path fill-rule="evenodd" clip-rule="evenodd" d="M48.8405 9.83677C48.8405 11.0371 48.87 12.0381 48.2792 13.1041C47.8024 13.9708 47.0428 14.5038 46.2031 14.5038C45.0511 14.5038 44.3759 13.6025 44.3759 12.2721C44.3759 9.6461 46.6673 9.16943 48.8405 9.16943V9.83677ZM51.8661 17.3465C51.6677 17.5285 51.3808 17.5415 51.1571 17.4202C50.1613 16.5708 49.9798 16.1765 49.4355 15.3662C47.7897 17.0908 46.6208 17.6065 44.4899 17.6065C41.9622 17.6065 40 16.0075 40 12.8051C40 10.3048 41.3166 8.60176 43.1986 7.76975C44.8274 7.03307 47.1019 6.90307 48.8405 6.69941V6.30073C48.8405 5.56839 48.8953 4.70171 48.4733 4.06905C48.1104 3.50137 47.4099 3.26737 46.7896 3.26737C45.6461 3.26737 44.6291 3.86971 44.3801 5.11772C44.3295 5.39506 44.1312 5.66806 43.8569 5.68106L40.9495 5.36039C40.7047 5.30406 40.4304 5.10039 40.5022 4.71472C41.1689 1.09201 44.359 0 47.2116 0C48.6717 0 50.579 0.398672 51.731 1.53402C53.1911 2.9337 53.0518 4.80138 53.0518 6.83374V11.6351C53.0518 13.0781 53.6341 13.7108 54.1827 14.4908C54.3726 14.7682 54.4148 15.1018 54.17 15.3098C53.5582 15.8342 52.4695 16.8092 51.8703 17.3552L51.866 17.3465" fill="#1D1E25"/>
<path fill-rule="evenodd" clip-rule="evenodd" d="M9.34046 9.83677C9.34046 11.0371 9.36999 12.0381 8.77922 13.1041C8.30238 13.9708 7.54704 14.5038 6.70309 14.5038C5.55108 14.5038 4.88014 13.6025 4.88014 12.2721C4.88014 9.6461 7.17148 9.16943 9.34046 9.16943V9.83677ZM12.366 17.3465C12.1677 17.5285 11.8808 17.5415 11.6571 17.4202C10.6612 16.5708 10.484 16.1765 9.93544 15.3662C8.28973 17.0908 7.12507 17.6065 4.98985 17.6065C2.46642 17.6065 0.5 16.0075 0.5 12.8051C0.5 10.3048 1.82079 8.60176 3.6986 7.76975C5.32744 7.03307 7.6019 6.90307 9.34046 6.6994V6.30073C9.34046 5.56839 9.39531 4.70171 8.97755 4.06904C8.61043 3.50137 7.90995 3.26737 7.29386 3.26737C6.1503 3.26737 5.12911 3.86971 4.88014 5.11772C4.8295 5.39506 4.63117 5.66806 4.36111 5.68106L1.44945 5.36039C1.2047 5.30406 0.934637 5.10038 1.00215 4.71472C1.6731 1.09201 4.85904 0 7.71162 0C9.17166 0 11.079 0.398672 12.231 1.53402C13.6911 2.9337 13.5518 4.80138 13.5518 6.83374V11.6351C13.5518 13.0781 14.1341 13.7108 14.6827 14.4908C14.8768 14.7682 14.919 15.1018 14.6743 15.3098C14.0624 15.8342 12.9737 16.8092 12.3745 17.3552L12.366 17.3465" fill="#1D1E25"/>
</g>
<defs>
<clipPath id="clip0_1_2683">
<rect width="96.9412" height="30" fill="white" transform="translate(0.5)"/>
</clipPath>
</defs>
</svg>
