<svg width="93" height="32" viewBox="0 0 93 32" fill="none" xmlns="http://www.w3.org/2000/svg">
<g clip-path="url(#clip0_1_2720)">
<path fill-rule="evenodd" clip-rule="evenodd" d="M81.6775 14.9133L75.8072 25.0705L70.7987 25.0904L81.6775 5.97236L92.5156 25.0904H87.4278L81.6775 14.9123V14.9133ZM65.8705 20.6687H71.48L68.8756 25.0904H61.5642L61.5841 19.7065V6.0899H65.8914L65.8715 20.6687H65.8705ZM50.4861 6.09089C55.8347 6.11082 60.1619 10.3542 60.142 15.5996C60.1222 20.8261 55.7951 25.0705 50.4454 25.0705C45.1166 25.0505 40.7895 20.8072 40.7895 15.5608C40.8093 10.3343 45.1364 6.09089 50.4861 6.09089ZM50.4662 20.6498C53.3305 20.6498 55.6334 18.3897 55.6334 15.5996C55.6542 12.8105 53.3305 10.5305 50.4861 10.5305C47.6407 10.5106 45.3169 12.7906 45.3169 15.5807C45.2971 18.3697 47.6208 20.6498 50.4653 20.6498H50.4662ZM32.8166 14.0905C32.7571 13.3036 32.5557 12.2627 32.2552 11.2616C31.6369 9.19385 30.5619 7.29289 29.1103 5.70043C28.3486 4.87566 27.4878 4.10867 26.2044 3.20521C25.2261 2.72031 24.2642 2.20272 23.3203 1.6533C22.6995 1.29968 21.9576 0.866382 20.9767 0.552613C19.8137 0.276896 18.6249 0.125642 17.4301 0.101382C16.2698 0.0615386 15.1064 0.161148 13.9847 0.376304C12.8025 0.572535 11.8207 0.886304 10.5184 1.20107C7.57287 2.47806 5.2898 4.40351 3.32608 6.95849C-3.52512 16.5658 2.66556 30.025 14.1047 31.6158C15.9881 31.8718 17.8715 31.7732 19.6537 31.3608L20.9162 31.0271C20.9559 31.0072 21.0164 30.9873 21.0561 30.9873L22.4991 30.4374C22.5785 30.3976 22.639 30.3777 22.7193 30.3388L23.3203 30.0639C24.4735 29.4923 25.556 28.7869 26.5456 27.9621C25.6448 28.7842 24.665 29.5146 23.6208 30.1426L23.6803 30.1824C23.8817 30.1227 24.0612 30.0639 24.2615 30.025C24.2615 30.025 24.2615 30.3388 24.2218 30.28C23.9015 30.5161 24.4023 30.3 25.043 29.9653C25.6847 29.6316 26.3056 29.2182 26.8659 28.747C27.6881 28.0597 28.4091 27.3127 29.4307 26.0954C30.472 24.2676 31.7752 22.6759 32.3762 20.5343C32.5766 19.9645 32.7561 19.2971 32.8771 18.6088C32.9961 17.9215 33.0774 17.2143 33.0774 16.4871C33.0576 15.76 32.9772 15.0129 32.8166 14.0905ZM17.9915 30.2412C21.4974 29.6903 24.442 27.746 26.8461 25.0934C27.5076 24.1302 28.0283 23.2456 28.669 22.2834C29.4703 20.3181 29.4108 18.57 29.6707 17.3328C29.992 15.0916 29.2303 13.2847 28.5896 11.3592C27.6078 9.11902 26.3056 7.44957 24.0215 6.15265C18.2513 2.57668 10.3984 3.57775 6.6525 8.92279C6.63267 8.92279 6.5315 9.06025 6.33117 9.33517C6.592 8.23549 7.25352 7.58703 7.91404 6.9575C9.87776 5.34681 12.1618 4.06882 14.7662 3.44128C17.7118 3.12652 20.6356 3.44128 23.2598 4.71828C27.1873 6.9575 29.7917 10.4757 30.4522 14.6394V18.4913C29.631 24.7985 24.2218 29.5927 17.9915 30.2412ZM32.3961 15.8974C32.2552 6.66365 23.1001 0.435074 14.1851 1.69314C11.5806 2.3406 8.73523 3.63752 6.71201 5.44543C5.73015 6.09289 5.26996 7.29218 4.2881 8.25441C0.360666 14.0118 1.04301 21.3799 5.93049 25.8604C6.55742 26.4829 7.22684 27.0607 7.93388 27.5896C3.84775 25.1322 2.00404 21.4178 1.36335 16.9005C1.36335 15.2888 1.6837 13.6971 2.02388 12.0864C4.30893 5.03205 11.5003 -0.0958442 19.3344 1.20107C20.6366 1.51584 21.9388 1.84953 23.2618 2.16429C24.9042 2.81175 26.5267 3.77498 27.8289 5.05296C29.1311 6.32896 30.113 7.94064 31.0949 9.5314C31.7554 10.8094 32.0767 12.4201 32.3971 13.6971C32.4566 14.4242 32.4566 15.1713 32.3971 15.8984L32.3961 15.8974Z" fill="#1D1E25"/>
<path fill-rule="evenodd" clip-rule="evenodd" d="M24.2623 16.036C24.2623 20.0054 20.9369 23.2278 16.83 23.2278C12.724 23.2278 9.39758 20.0054 9.39758 16.036C9.39758 12.0676 12.723 8.84521 16.83 8.84521C20.9369 8.84521 24.2623 12.0676 24.2623 16.037V16.036Z" fill="white"/>
<path fill-rule="evenodd" clip-rule="evenodd" d="M24.3031 14.8176C24.2029 14.2678 24.0422 13.8355 23.8825 13.2268C23.2409 11.8901 22.2997 10.8492 21.057 9.96464C16.4095 6.88074 10.0185 9.8471 9.33812 15.1135C9.07828 17.1963 9.81913 19.2004 11.1412 20.7334C10.7405 20.32 10.3001 19.8887 9.99964 19.3967L9.95997 19.4365C9.99964 19.554 10.1603 19.6327 10.2 19.7503C10.2 19.7503 10.0393 19.7503 10.08 19.7303C9.95997 19.5939 10.0601 19.81 10.2396 20.1039C10.4003 20.3987 10.6007 20.6746 10.8407 20.9296C11.1818 21.3032 11.5419 21.6369 12.1429 22.0891C13.0256 22.5403 13.8061 23.13 14.8276 23.4049C15.1083 23.4846 15.4286 23.5623 15.75 23.6211C16.0901 23.6809 16.4105 23.7008 16.7715 23.7008C17.1117 23.7008 17.4727 23.6609 17.913 23.5812C18.3671 23.5275 18.816 23.4359 19.2549 23.3073C20.2354 23.0109 21.1386 22.5007 21.9 21.8132C22.2808 21.4606 22.8223 21.0083 23.2418 20.4186C23.583 19.7513 23.6227 19.4166 23.7834 19.1217C23.943 18.8269 24.1434 18.4932 24.2842 18.041C24.399 17.5045 24.466 16.9588 24.4845 16.4104C24.4647 15.8605 24.425 15.3296 24.304 14.8186L24.3031 14.8176ZM19.5346 11.1639C20.2159 11.5564 20.3161 11.6152 19.9551 11.3602C20.4768 11.4777 20.7971 11.7726 21.1175 12.0674C21.899 12.9519 22.5397 13.9928 22.86 15.1911C23.0405 16.5468 22.8997 17.9025 22.3195 19.1018C21.2781 20.9286 19.6149 22.1469 17.6314 22.4806C17.4112 22.4806 17.1712 22.4806 16.95 22.5005C17.5114 22.4019 17.8724 22.0483 18.8939 21.6747C19.9948 21.2823 21.2375 19.4554 21.8395 18.3936C23.6019 15.5049 21.5181 12.8334 19.5346 11.1639ZM15.7688 22.5194C12.7241 22.2056 10.3795 19.7104 10.0591 16.8218C10.3388 18.4334 11.3008 19.6706 12.6031 20.7713C13.0642 21.0661 13.7446 21.4785 14.2058 21.7733C14.9873 22.0682 15.4475 22.3829 16.2092 22.5204H15.7688V22.5194ZM23.9619 17.274C23.823 17.8836 23.6822 18.4723 23.5414 19.0819C23.2409 19.829 22.8005 20.595 22.1995 21.2036C21.5985 21.8132 20.8368 22.2843 20.0761 22.7366C19.4751 23.0503 18.7134 23.2077 18.0925 23.3641C17.7315 23.4039 17.311 23.2466 16.95 23.2276C21.3981 23.1091 24.4429 18.9644 23.7824 14.8575C23.461 13.6592 22.8203 12.6172 22.0388 11.5763C21.7185 11.1241 21.0966 10.8492 20.6365 10.3969C17.8515 8.6488 14.1661 9.00242 12.0625 11.3014C11.7676 11.6035 11.4929 11.925 11.2404 12.2636C12.363 10.6131 14.1661 9.45464 16.3292 9.11996C17.0908 9.10003 17.8724 9.23849 18.6331 9.37595C21.9992 10.3969 24.5034 13.6592 23.9619 17.275V17.274Z" fill="#D7DF23"/>
</g>
<defs>
<clipPath id="clip0_1_2720">
<rect width="92.2353" height="31.875" fill="white" transform="translate(0.382324 0.0625)"/>
</clipPath>
</defs>
</svg>
