<svg width="81" height="30" viewBox="0 0 81 30" fill="none" xmlns="http://www.w3.org/2000/svg">
<g clip-path="url(#clip0_1_2732)">
<path d="M65.9719 28.7248C73.4809 28.7248 79.5909 22.5403 79.5909 14.9398C79.5909 7.33479 73.4809 1.15479 65.9719 1.15479C58.4613 1.15479 52.3529 7.33479 52.3529 14.9398C52.3529 22.5403 58.4613 28.7248 65.9719 28.7248ZM65.9719 10.0243C68.6479 10.0243 70.8273 12.2293 70.8273 14.9383C70.8273 17.6473 68.6464 19.8493 65.9704 19.8493C63.2928 19.8493 61.1164 17.6473 61.1164 14.9368C61.1164 12.2248 63.2943 10.0213 65.9704 10.0213L65.9719 10.0243ZM14.5896 28.7248C22.0987 28.7248 28.2086 22.5403 28.2086 14.9398C28.2086 7.33479 22.0987 1.15479 14.5896 1.15479C7.08198 1.15479 0.970581 7.33479 0.970581 14.9398C0.970581 22.5403 7.08198 28.7248 14.5896 28.7248ZM14.5896 10.0243C17.2671 10.0243 19.445 12.2293 19.445 14.9383C19.445 17.6473 17.2671 19.8493 14.5896 19.8493C11.9135 19.8493 9.73716 17.6473 9.73716 14.9368C9.73716 12.2248 11.915 10.0213 14.5896 10.0213V10.0243ZM40.2733 9.71379L36.0921 1.33479H26.3022L35.4462 19.6648V28.2943H45.1018V19.6648L54.2458 1.33479H44.4514L40.2748 9.71379H40.2733Z" fill="#EE2E24"/>
</g>
<defs>
<clipPath id="clip0_1_2732">
<rect width="79.0588" height="30" fill="white" transform="translate(0.970581)"/>
</clipPath>
</defs>
</svg>
