<svg width="18" height="19" viewBox="0 0 18 19" fill="none" xmlns="http://www.w3.org/2000/svg">
<path d="M3.66835 8.03027C2.86684 8.03027 2.21106 8.68605 2.21106 9.48756C2.21106 10.2891 2.86684 10.9448 3.66835 10.9448C4.46985 10.9448 5.12563 10.2891 5.12563 9.48756C5.12563 8.68605 4.46985 8.03027 3.66835 8.03027Z" fill="#7E8492"/>
<path d="M13.8694 8.03027C13.0679 8.03027 12.4121 8.68605 12.4121 9.48756C12.4121 10.2891 13.0679 10.9448 13.8694 10.9448C14.6709 10.9448 15.3267 10.2891 15.3267 9.48756C15.3267 8.68605 14.6709 8.03027 13.8694 8.03027Z" fill="#7E8492"/>
<path d="M8.76887 8.03027C7.96736 8.03027 7.31158 8.68605 7.31158 9.48756C7.31158 10.2891 7.96736 10.9448 8.76887 10.9448C9.57038 10.9448 10.2262 10.2891 10.2262 9.48756C10.2262 8.68605 9.57038 8.03027 8.76887 8.03027Z" fill="#7E8492"/>
</svg>
