<svg width="367" height="261" viewBox="0 0 367 261" fill="none" xmlns="http://www.w3.org/2000/svg">
<g clip-path="url(#clip0_1_2881)">
<mask id="mask0_1_2881" style="mask-type:luminance" maskUnits="userSpaceOnUse" x="-1" y="8" width="369" height="261">
<rect x="-0.034729" y="8.87836" width="367.22" height="260" transform="rotate(0.0158183 -0.034729 8.87836)" fill="white"/>
</mask>
<g mask="url(#mask0_1_2881)">
<g clip-path="url(#clip1_1_2881)">
<path d="M336.767 250.608C336.767 251.528 336.601 252.324 336.268 252.994C335.936 253.664 335.48 254.181 334.9 254.545C334.32 254.908 333.658 255.09 332.914 255.09C332.17 255.089 331.508 254.907 330.928 254.544C330.349 254.18 329.893 253.663 329.561 252.992C329.229 252.322 329.063 251.526 329.063 250.606C329.063 249.685 329.23 248.89 329.562 248.219C329.895 247.549 330.351 247.032 330.93 246.669C331.51 246.305 332.172 246.124 332.916 246.124C333.661 246.124 334.323 246.306 334.902 246.67C335.481 247.034 335.937 247.551 336.27 248.221C336.602 248.892 336.768 249.687 336.767 250.608ZM335.745 250.607C335.745 249.852 335.619 249.214 335.366 248.694C335.116 248.174 334.777 247.78 334.348 247.513C333.922 247.246 333.445 247.113 332.916 247.112C332.388 247.112 331.909 247.246 331.48 247.513C331.054 247.779 330.714 248.173 330.461 248.693C330.211 249.212 330.086 249.85 330.086 250.606C330.085 251.362 330.21 251.999 330.46 252.519C330.713 253.039 331.052 253.433 331.478 253.7C331.907 253.967 332.386 254.101 332.914 254.101C333.443 254.101 333.92 253.968 334.346 253.701C334.775 253.434 335.115 253.041 335.365 252.521C335.618 252.001 335.744 251.363 335.745 250.607ZM341.066 255.109C340.452 255.109 339.924 254.964 339.481 254.674C339.038 254.384 338.697 253.985 338.458 253.476C338.22 252.968 338.101 252.387 338.101 251.733C338.101 251.068 338.223 250.482 338.468 249.973C338.715 249.462 339.059 249.063 339.499 248.776C339.943 248.486 340.46 248.342 341.051 248.342C341.511 248.342 341.926 248.427 342.295 248.598C342.664 248.768 342.967 249.007 343.202 249.314C343.438 249.621 343.584 249.979 343.641 250.388L342.635 250.388C342.559 250.089 342.388 249.825 342.124 249.595C341.863 249.362 341.511 249.245 341.068 249.245C340.675 249.245 340.332 249.347 340.036 249.552C339.744 249.753 339.515 250.039 339.35 250.408C339.188 250.775 339.107 251.205 339.107 251.699C339.106 252.205 339.186 252.645 339.345 253.02C339.507 253.395 339.734 253.687 340.026 253.894C340.322 254.102 340.668 254.205 341.066 254.206C341.328 254.206 341.565 254.16 341.778 254.069C341.991 253.979 342.171 253.848 342.319 253.677C342.467 253.507 342.572 253.303 342.635 253.064L343.64 253.064C343.583 253.451 343.443 253.799 343.218 254.108C342.996 254.415 342.702 254.659 342.336 254.841C341.972 255.02 341.549 255.109 341.066 255.109ZM347.958 248.429L347.958 249.281L344.566 249.28L344.566 248.428L347.958 248.429ZM345.555 246.86L346.561 246.86L346.559 253.099C346.559 253.383 346.6 253.596 346.683 253.738C346.768 253.878 346.876 253.971 347.007 254.02C347.14 254.065 347.281 254.088 347.428 254.088C347.539 254.088 347.63 254.082 347.701 254.071C347.772 254.057 347.829 254.045 347.872 254.037L348.076 254.94C348.008 254.966 347.913 254.992 347.79 255.017C347.668 255.045 347.513 255.06 347.326 255.06C347.042 255.059 346.763 254.998 346.491 254.876C346.221 254.754 345.996 254.568 345.818 254.318C345.641 254.068 345.553 253.752 345.554 253.372L345.555 246.86Z" fill="#808D9E"/>
<path fill-rule="evenodd" clip-rule="evenodd" d="M337.842 237.972L337.893 54.9716L339.113 54.972L339.062 237.972L337.842 237.972Z" fill="#E9ECF2"/>
</g>
<g clip-path="url(#clip2_1_2881)">
<path d="M280.844 248.41C280.793 247.979 280.586 247.643 280.222 247.405C279.859 247.166 279.413 247.046 278.884 247.046C278.498 247.046 278.16 247.109 277.87 247.234C277.583 247.358 277.359 247.53 277.197 247.749C277.037 247.968 276.958 248.216 276.958 248.495C276.958 248.728 277.013 248.928 277.124 249.096C277.237 249.26 277.382 249.398 277.558 249.509C277.734 249.617 277.919 249.707 278.112 249.778C278.305 249.846 278.483 249.901 278.645 249.944L279.531 250.183C279.758 250.243 280.011 250.325 280.29 250.43C280.571 250.535 280.839 250.679 281.095 250.861C281.353 251.04 281.566 251.27 281.734 251.551C281.901 251.833 281.985 252.178 281.985 252.587C281.985 253.059 281.861 253.485 281.614 253.865C281.369 254.246 281.011 254.548 280.54 254.773C280.071 254.997 279.501 255.109 278.831 255.109C278.206 255.109 277.665 255.008 277.207 254.806C276.753 254.604 276.395 254.323 276.134 253.962C275.875 253.601 275.729 253.182 275.695 252.705L276.786 252.705C276.814 253.034 276.925 253.307 277.118 253.523C277.314 253.736 277.561 253.895 277.86 254.001C278.161 254.103 278.485 254.154 278.831 254.154C279.235 254.154 279.597 254.089 279.918 253.959C280.239 253.825 280.493 253.64 280.681 253.405C280.868 253.166 280.962 252.888 280.962 252.57C280.962 252.28 280.881 252.044 280.72 251.862C280.558 251.68 280.345 251.532 280.08 251.419C279.816 251.305 279.531 251.206 279.224 251.12L278.15 250.813C277.468 250.617 276.929 250.337 276.531 249.973C276.134 249.609 275.935 249.134 275.935 248.545C275.935 248.057 276.067 247.631 276.332 247.267C276.599 246.901 276.957 246.617 277.406 246.415C277.857 246.211 278.362 246.109 278.919 246.109C279.481 246.109 279.981 246.21 280.418 246.412C280.856 246.611 281.202 246.884 281.458 247.23C281.716 247.577 281.853 247.97 281.867 248.411L280.844 248.41ZM286.33 255.094C285.699 255.094 285.155 254.954 284.698 254.676C284.243 254.394 283.893 254.002 283.646 253.499C283.401 252.994 283.279 252.405 283.28 251.735C283.28 251.065 283.402 250.474 283.647 249.962C283.894 249.448 284.238 249.048 284.678 248.761C285.121 248.471 285.638 248.327 286.229 248.327C286.57 248.327 286.907 248.384 287.239 248.497C287.572 248.611 287.874 248.796 288.147 249.052C288.419 249.305 288.637 249.64 288.799 250.058C288.96 250.475 289.041 250.989 289.041 251.6L289.041 252.026L283.995 252.025L283.996 251.156L288.018 251.157C288.018 250.787 287.945 250.458 287.797 250.168C287.652 249.878 287.445 249.65 287.175 249.482C286.908 249.314 286.593 249.23 286.229 249.23C285.829 249.23 285.482 249.329 285.189 249.528C284.899 249.724 284.676 249.98 284.52 250.295C284.364 250.61 284.285 250.948 284.285 251.309L284.285 251.889C284.285 252.383 284.37 252.802 284.541 253.146C284.714 253.487 284.954 253.747 285.261 253.926C285.567 254.102 285.924 254.19 286.33 254.19C286.594 254.19 286.833 254.154 287.046 254.08C287.262 254.003 287.448 253.89 287.604 253.739C287.761 253.586 287.881 253.395 287.967 253.168L288.938 253.441C288.836 253.771 288.664 254.06 288.422 254.31C288.181 254.557 287.882 254.75 287.527 254.89C287.172 255.026 286.773 255.094 286.33 255.094ZM290.569 257.413L290.572 248.413L291.543 248.413L291.543 249.453L291.662 249.453C291.736 249.34 291.839 249.195 291.969 249.019C292.103 248.84 292.293 248.681 292.54 248.542C292.79 248.4 293.129 248.329 293.555 248.329C294.106 248.329 294.592 248.467 295.012 248.743C295.432 249.018 295.76 249.409 295.996 249.915C296.232 250.42 296.349 251.017 296.349 251.705C296.349 252.398 296.231 252.999 295.995 253.507C295.759 254.013 295.432 254.405 295.015 254.683C294.597 254.958 294.115 255.096 293.57 255.096C293.149 255.096 292.813 255.026 292.56 254.887C292.307 254.745 292.113 254.584 291.976 254.405C291.84 254.223 291.735 254.073 291.661 253.953L291.576 253.953L291.575 257.413L290.569 257.413ZM291.559 251.686C291.559 252.18 291.632 252.617 291.776 252.994C291.921 253.369 292.133 253.664 292.411 253.877C292.689 254.087 293.03 254.192 293.434 254.192C293.854 254.192 294.205 254.082 294.486 253.86C294.771 253.636 294.984 253.335 295.126 252.957C295.271 252.576 295.343 252.153 295.344 251.687C295.344 251.227 295.273 250.812 295.131 250.443C294.992 250.071 294.78 249.777 294.496 249.561C294.215 249.342 293.861 249.232 293.435 249.232C293.026 249.232 292.682 249.336 292.404 249.543C292.125 249.747 291.915 250.034 291.773 250.404C291.631 250.77 291.56 251.198 291.559 251.686Z" fill="#808D9E"/>
<path fill-rule="evenodd" clip-rule="evenodd" d="M285.382 237.957L285.433 54.9572L286.653 54.9575L286.602 237.957L285.382 237.957Z" fill="#E9ECF2"/>
</g>
<g clip-path="url(#clip3_1_2881)">
<path d="M221.915 254.94L220.807 254.939L224.014 246.213L225.105 246.213L228.307 254.941L227.199 254.941L224.593 247.594L224.525 247.594L221.915 254.94ZM222.325 251.531L226.791 251.532L226.79 252.469L222.325 252.468L222.325 251.531ZM233.656 252.267L233.657 248.397L234.662 248.398L234.661 254.943L233.655 254.943L233.655 253.835L233.587 253.835C233.433 254.167 233.195 254.45 232.871 254.683C232.547 254.913 232.138 255.028 231.643 255.028C231.234 255.027 230.871 254.938 230.553 254.759C230.235 254.577 229.985 254.304 229.803 253.94C229.621 253.574 229.53 253.112 229.531 252.555L229.532 248.396L230.537 248.397L230.536 252.487C230.536 252.965 230.67 253.345 230.936 253.63C231.206 253.914 231.55 254.056 231.968 254.056C232.218 254.056 232.472 253.992 232.73 253.864C232.992 253.737 233.211 253.541 233.387 253.277C233.566 253.012 233.655 252.676 233.656 252.267ZM239.144 257.535C238.658 257.535 238.24 257.473 237.891 257.347C237.542 257.225 237.251 257.063 237.018 256.861C236.788 256.662 236.604 256.449 236.468 256.222L237.269 255.66C237.36 255.779 237.475 255.916 237.614 256.069C237.754 256.225 237.944 256.36 238.185 256.474C238.43 256.59 238.749 256.649 239.144 256.649C239.673 256.649 240.109 256.521 240.452 256.266C240.796 256.01 240.968 255.61 240.968 255.064L240.969 253.735L240.884 253.735C240.81 253.854 240.704 254.002 240.568 254.178C240.435 254.351 240.241 254.506 239.988 254.642C239.738 254.776 239.4 254.842 238.974 254.842C238.446 254.842 237.971 254.717 237.551 254.467C237.133 254.217 236.803 253.853 236.558 253.375C236.317 252.898 236.196 252.319 236.197 251.637C236.197 250.966 236.315 250.383 236.551 249.885C236.787 249.385 237.115 248.999 237.535 248.727C237.956 248.451 238.442 248.314 238.993 248.314C239.419 248.314 239.757 248.385 240.007 248.527C240.26 248.666 240.453 248.825 240.587 249.004C240.723 249.181 240.828 249.326 240.902 249.439L241.004 249.439L241.004 248.399L241.976 248.4L241.974 255.133C241.974 255.695 241.846 256.153 241.59 256.505C241.337 256.86 240.996 257.12 240.567 257.284C240.141 257.452 239.667 257.535 239.144 257.535ZM239.111 253.939C239.514 253.939 239.855 253.847 240.134 253.662C240.412 253.477 240.624 253.212 240.769 252.865C240.914 252.519 240.986 252.104 240.986 251.621C240.987 251.149 240.916 250.733 240.774 250.372C240.632 250.012 240.422 249.729 240.143 249.524C239.865 249.32 239.521 249.217 239.112 249.217C238.686 249.217 238.331 249.325 238.047 249.541C237.765 249.756 237.554 250.046 237.411 250.41C237.272 250.773 237.202 251.177 237.202 251.62C237.202 252.075 237.273 252.477 237.415 252.826C237.56 253.173 237.773 253.445 238.054 253.644C238.338 253.84 238.69 253.939 239.111 253.939Z" fill="#808D9E"/>
<path fill-rule="evenodd" clip-rule="evenodd" d="M230.482 237.942L230.533 54.942L231.753 54.9423L231.702 237.942L230.482 237.942Z" fill="#E9ECF2"/>
</g>
<g clip-path="url(#clip4_1_2881)">
<path d="M175.469 246.2L176.526 246.2L176.525 252.438C176.524 252.995 176.422 253.468 176.217 253.857C176.013 254.247 175.724 254.542 175.352 254.744C174.98 254.945 174.541 255.046 174.035 255.046C173.558 255.046 173.133 254.959 172.761 254.785C172.389 254.609 172.096 254.359 171.884 254.035C171.671 253.711 171.564 253.326 171.564 252.88L172.604 252.881C172.604 253.128 172.665 253.344 172.787 253.528C172.912 253.71 173.082 253.852 173.298 253.955C173.514 254.057 173.76 254.108 174.035 254.108C174.339 254.108 174.598 254.044 174.811 253.917C175.024 253.789 175.186 253.601 175.297 253.354C175.411 253.104 175.468 252.799 175.468 252.438L175.469 246.2ZM182.631 252.253L182.632 248.383L183.638 248.384L183.636 254.929L182.63 254.929L182.631 253.821L182.563 253.821C182.409 254.153 182.17 254.436 181.846 254.669C181.522 254.899 181.113 255.014 180.619 255.013C180.21 255.013 179.846 254.924 179.528 254.745C179.21 254.563 178.96 254.29 178.778 253.926C178.597 253.56 178.506 253.098 178.506 252.541L178.507 248.382L179.513 248.382L179.512 252.473C179.512 252.951 179.645 253.331 179.912 253.616C180.182 253.9 180.526 254.042 180.943 254.042C181.193 254.042 181.447 253.978 181.706 253.85C181.967 253.723 182.186 253.527 182.362 253.262C182.541 252.998 182.631 252.662 182.631 252.253ZM186.486 246.203L186.484 254.93L185.478 254.93L185.48 246.202L186.486 246.203Z" fill="#808D9E"/>
<path fill-rule="evenodd" clip-rule="evenodd" d="M178.022 237.928L178.073 54.9275L180.513 54.9282L180.462 237.928L178.022 237.928Z" fill="#E9ECF2"/>
<path opacity="0.1" fill-rule="evenodd" clip-rule="evenodd" d="M156.062 237.921L156.113 54.9214L204.913 54.9349L204.862 237.935L156.062 237.921Z" fill="url(#paint0_linear_1_2881)"/>
</g>
<g clip-path="url(#clip5_1_2881)">
<path d="M122.754 246.185L123.81 246.185L123.809 252.424C123.809 252.981 123.706 253.454 123.501 253.843C123.297 254.232 123.008 254.527 122.636 254.729C122.264 254.931 121.825 255.031 121.319 255.031C120.842 255.031 120.417 254.944 120.045 254.771C119.673 254.595 119.381 254.345 119.168 254.021C118.955 253.697 118.848 253.312 118.848 252.866L119.888 252.866C119.888 253.113 119.949 253.329 120.071 253.514C120.196 253.696 120.367 253.838 120.582 253.94C120.798 254.042 121.044 254.094 121.32 254.094C121.624 254.094 121.882 254.03 122.095 253.902C122.308 253.774 122.47 253.587 122.581 253.34C122.695 253.09 122.752 252.784 122.752 252.424L122.754 246.185ZM129.915 252.238L129.916 248.369L130.922 248.369L130.92 254.915L129.915 254.914L129.915 253.806L129.847 253.806C129.693 254.139 129.454 254.421 129.131 254.654C128.807 254.884 128.397 254.999 127.903 254.999C127.494 254.999 127.13 254.909 126.812 254.73C126.494 254.548 126.244 254.275 126.063 253.912C125.881 253.545 125.79 253.084 125.79 252.527L125.791 248.368L126.797 248.368L126.796 252.459C126.796 252.936 126.929 253.317 127.196 253.601C127.466 253.885 127.81 254.027 128.227 254.027C128.477 254.027 128.732 253.964 128.99 253.836C129.252 253.708 129.47 253.512 129.647 253.248C129.826 252.984 129.915 252.647 129.915 252.238ZM133.769 250.978L133.768 254.915L132.762 254.915L132.764 248.37L133.736 248.37L133.735 249.393L133.821 249.393C133.974 249.06 134.207 248.793 134.52 248.592C134.832 248.387 135.236 248.285 135.73 248.285C136.173 248.285 136.561 248.376 136.893 248.558C137.226 248.737 137.484 249.01 137.669 249.377C137.853 249.74 137.945 250.201 137.945 250.757L137.944 254.916L136.938 254.916L136.939 250.825C136.94 250.311 136.806 249.91 136.539 249.623C136.272 249.334 135.906 249.189 135.44 249.189C135.119 249.188 134.832 249.258 134.579 249.397C134.329 249.536 134.132 249.739 133.987 250.006C133.842 250.273 133.769 250.597 133.769 250.978Z" fill="#808D9E"/>
<path fill-rule="evenodd" clip-rule="evenodd" d="M130.442 237.914L130.493 54.9144L131.713 54.9147L131.662 237.915L130.442 237.914Z" fill="#E9ECF2"/>
</g>
<g clip-path="url(#clip6_1_2881)">
<path d="M62.2152 246.168L63.4765 246.169L66.4405 253.414L66.5427 253.414L69.5106 246.17L70.772 246.171L70.7696 254.898L69.781 254.898L69.7828 248.267L69.6976 248.267L66.9685 254.897L66.0139 254.897L63.2885 248.265L63.2032 248.265L63.2014 254.896L62.2128 254.896L62.2152 246.168ZM74.6783 255.052C74.2635 255.052 73.8871 254.974 73.5491 254.818C73.2111 254.659 72.9427 254.43 72.7439 254.131C72.5451 253.83 72.4458 253.467 72.4459 253.04C72.446 252.665 72.5199 252.361 72.6677 252.129C72.8155 251.893 73.013 251.708 73.2602 251.575C73.5074 251.441 73.7802 251.342 74.0785 251.277C74.3796 251.209 74.6822 251.155 74.9862 251.115C75.3839 251.064 75.7064 251.026 75.9536 251C76.2036 250.972 76.3854 250.925 76.499 250.86C76.6155 250.794 76.6738 250.681 76.6739 250.519L76.6739 250.485C76.674 250.064 76.559 249.738 76.329 249.505C76.1018 249.272 75.7566 249.155 75.2935 249.155C74.8134 249.155 74.437 249.26 74.1642 249.47C73.8914 249.68 73.6996 249.904 73.5887 250.143L72.6343 249.802C72.8048 249.404 73.0322 249.095 73.3164 248.873C73.6033 248.649 73.9159 248.493 74.254 248.405C74.5949 248.314 74.9302 248.268 75.2597 248.268C75.4699 248.269 75.7114 248.294 75.9841 248.345C76.2597 248.394 76.5253 248.495 76.7809 248.648C77.0394 248.802 77.2538 249.033 77.4242 249.343C77.5945 249.653 77.6797 250.067 77.6795 250.587L77.6783 254.9L76.6726 254.9L76.6729 254.013L76.6218 254.013C76.5535 254.155 76.4399 254.307 76.2807 254.469C76.1216 254.631 75.9099 254.769 75.6457 254.882C75.3814 254.996 75.059 255.052 74.6783 255.052ZM74.8319 254.149C75.2297 254.149 75.5649 254.071 75.8377 253.915C76.1133 253.759 76.3207 253.557 76.46 253.31C76.6021 253.063 76.6732 252.803 76.6733 252.53L76.6736 251.61C76.6309 251.661 76.5372 251.708 76.3923 251.75C76.2502 251.79 76.0854 251.825 75.8979 251.857C75.7133 251.885 75.5328 251.911 75.3567 251.933C75.1834 251.953 75.0428 251.97 74.9348 251.984C74.6734 252.018 74.4291 252.074 74.2018 252.15C73.9774 252.224 73.7955 252.336 73.6563 252.487C73.5199 252.634 73.4516 252.836 73.4516 253.092C73.4515 253.441 73.5806 253.705 73.8391 253.885C74.1004 254.061 74.4314 254.149 74.8319 254.149ZM79.9266 257.355C79.7561 257.355 79.6041 257.341 79.4706 257.312C79.3371 257.287 79.2448 257.261 79.1937 257.235L79.4496 256.349C79.6939 256.412 79.9098 256.435 80.0973 256.418C80.2848 256.401 80.451 256.317 80.5959 256.166C80.7437 256.019 80.8787 255.779 81.001 255.446L81.1886 254.935L78.77 248.355L79.8609 248.355L81.6663 253.571L81.7344 253.571L83.5427 248.356L84.6336 248.356L81.8531 255.855C81.728 256.194 81.5731 256.473 81.3884 256.695C81.2037 256.919 80.9892 257.085 80.7448 257.193C80.5033 257.301 80.2306 257.355 79.9266 257.355Z" fill="#808D9E"/>
<path fill-rule="evenodd" clip-rule="evenodd" d="M74.3359 237.899L74.3864 54.8989L75.5787 54.8992L75.5282 237.899L74.3359 237.899Z" fill="#E9ECF2"/>
</g>
<g clip-path="url(#clip7_1_2881)">
<path d="M12.9496 234.362L10.1232 242.137L8.96893 242.137L12.2232 233.606L12.9674 233.607L12.9496 234.362ZM15.3146 242.138L12.4867 234.362L12.4693 233.606L13.2135 233.607L16.4748 242.139L15.3146 242.138ZM15.169 238.98L15.1688 239.906L10.3758 239.905L10.376 238.979L15.169 238.98ZM18.6244 237.018L18.6223 244.577L17.5325 244.577L17.5349 235.799L18.531 235.799L18.6244 237.018ZM22.8954 238.918L22.8953 239.041C22.8952 239.502 22.8404 239.93 22.7309 240.324C22.6214 240.715 22.4612 241.054 22.2502 241.343C22.0431 241.632 21.7871 241.857 21.4824 242.017C21.1777 242.177 20.828 242.257 20.4335 242.257C20.0312 242.257 19.6757 242.19 19.3672 242.058C19.0586 241.925 18.7969 241.731 18.5822 241.477C18.3674 241.223 18.1956 240.919 18.0668 240.563C17.9419 240.208 17.8561 239.807 17.8093 239.362L17.8095 238.706C17.8565 238.237 17.9445 237.817 18.0735 237.446C18.2025 237.075 18.3725 236.758 18.5835 236.497C18.7985 236.231 19.0583 236.03 19.363 235.893C19.6677 235.753 20.0193 235.683 20.4178 235.683C20.8162 235.683 21.1697 235.761 21.4782 235.917C21.7868 236.07 22.0465 236.289 22.2573 236.574C22.4682 236.859 22.6263 237.201 22.7317 237.599C22.8409 237.994 22.8955 238.434 22.8954 238.918ZM21.8055 239.041L21.8055 238.918C21.8056 238.601 21.7725 238.304 21.7062 238.027C21.6398 237.746 21.5364 237.5 21.3958 237.289C21.2592 237.074 21.0834 236.906 20.8686 236.785C20.6538 236.659 20.398 236.597 20.1011 236.597C19.8277 236.597 19.5894 236.644 19.3862 236.737C19.187 236.831 19.017 236.958 18.8763 237.118C18.7357 237.274 18.6204 237.454 18.5305 237.657C18.4445 237.856 18.38 238.063 18.337 238.278L18.3365 239.796C18.4146 240.069 18.5239 240.327 18.6644 240.569C18.805 240.807 18.9925 241.001 19.2268 241.149C19.4611 241.294 19.756 241.366 20.1115 241.366C20.4045 241.366 20.6564 241.306 20.8674 241.185C21.0823 241.06 21.2581 240.89 21.3949 240.675C21.5356 240.46 21.6392 240.214 21.7056 239.937C21.7721 239.656 21.8054 239.357 21.8055 239.041ZM25.4485 236.797L25.447 242.141L24.363 242.141L24.3648 235.801L25.4195 235.801L25.4485 236.797ZM27.4292 235.767L27.4231 236.775C27.3332 236.755 27.2473 236.743 27.1653 236.739C27.0872 236.732 26.9973 236.728 26.8958 236.728C26.6458 236.728 26.425 236.767 26.2336 236.845C26.0422 236.923 25.88 237.032 25.7472 237.173C25.6143 237.313 25.5088 237.481 25.4307 237.676C25.3564 237.868 25.3075 238.079 25.284 238.309L24.9793 238.485C24.9794 238.102 25.0166 237.743 25.0909 237.407C25.1691 237.071 25.2883 236.774 25.4485 236.516C25.6088 236.255 25.812 236.052 26.0581 235.907C26.3081 235.759 26.605 235.685 26.9488 235.685C27.0269 235.685 27.1167 235.694 27.2183 235.714C27.3199 235.73 27.3902 235.747 27.4292 235.767Z" fill="#92929D"/>
<path fill-rule="evenodd" clip-rule="evenodd" d="M19.4361 237.884L19.4867 54.8837L20.6789 54.8841L20.6284 237.884L19.4361 237.884Z" fill="#F1F1F5"/>
</g>
<g filter="url(#filter0_d_1_2881)">
<path d="M188.06 62.9303C188.062 56.3029 193.436 50.9318 200.063 50.9336L248.063 50.9469C254.691 50.9487 260.062 56.3228 260.06 62.9502L260.056 76.9502C260.054 83.5776 254.68 88.9487 248.053 88.9469L188.053 88.9303L188.06 62.9303Z" fill="white"/>
</g>
<path d="M222.581 75.079C221.842 75.0788 221.186 74.9543 220.612 74.7056C220.042 74.4569 219.595 74.117 219.27 73.6861C218.949 73.2518 218.79 72.7596 218.793 72.2094C218.79 71.7818 218.883 71.3891 219.072 71.0312C219.261 70.6733 219.516 70.375 219.838 70.1365C220.163 69.8946 220.524 69.7406 220.922 69.6744L220.922 69.6048C220.398 69.4887 219.974 69.2218 219.649 68.8041C219.328 68.383 219.169 67.8974 219.173 67.3473C219.169 66.8236 219.315 66.3563 219.61 65.9454C219.906 65.5345 220.31 65.2114 220.824 64.9763C221.338 64.7378 221.924 64.6186 222.584 64.6188C223.237 64.619 223.818 64.7385 224.329 64.9772C224.842 65.2127 225.247 65.536 225.542 65.947C225.84 66.3581 225.989 66.8255 225.989 67.3491C225.988 67.8993 225.824 68.3848 225.496 68.8057C225.171 69.2232 224.752 69.4899 224.238 69.6058L224.238 69.6754C224.636 69.7418 224.994 69.896 225.312 70.138C225.633 70.3767 225.888 70.6751 226.077 71.0331C226.269 71.3911 226.365 71.7839 226.365 72.2115C226.365 72.7616 226.202 73.2538 225.877 73.6879C225.553 74.1187 225.105 74.4583 224.535 74.7067C223.968 74.9551 223.317 75.0792 222.581 75.079ZM222.581 73.6571C222.962 73.6573 223.294 73.5927 223.576 73.4635C223.857 73.331 224.076 73.1455 224.232 72.9069C224.388 72.6683 224.468 72.3932 224.471 72.0817C224.468 71.7569 224.383 71.4701 224.218 71.2215C224.055 70.9696 223.832 70.7723 223.547 70.6297C223.265 70.4871 222.943 70.4158 222.582 70.4157C222.218 70.4156 221.893 70.4867 221.608 70.6292C221.323 70.7716 221.097 70.9688 220.931 71.2206C220.769 71.4691 220.689 71.7558 220.693 72.0806C220.689 72.3922 220.765 72.6673 220.921 72.906C221.077 73.1413 221.295 73.3254 221.577 73.458C221.862 73.5907 222.197 73.657 222.581 73.6571ZM222.583 69.0187C222.894 69.0187 223.169 68.9558 223.408 68.83C223.65 68.7041 223.841 68.5285 223.98 68.3031C224.119 68.0778 224.19 67.8176 224.194 67.5226C224.191 67.231 224.121 66.9758 223.985 66.757C223.849 66.5349 223.66 66.3641 223.419 66.2447C223.177 66.122 222.898 66.0606 222.583 66.0606C222.262 66.0605 221.979 66.1217 221.733 66.2443C221.491 66.3635 221.302 66.5342 221.166 66.7562C221.034 66.9749 220.969 67.2301 220.972 67.5218C220.969 67.8167 221.035 68.0769 221.171 68.3024C221.31 68.5245 221.501 68.7002 221.742 68.8295C221.988 68.9555 222.268 69.0186 222.583 69.0187ZM227.999 74.9413L227.999 73.6089L231.535 70.1447C231.873 69.8034 232.155 69.5002 232.38 69.2351C232.606 68.97 232.775 68.7132 232.888 68.4647C233 68.2161 233.057 67.951 233.057 67.6693C233.057 67.3478 232.984 67.0727 232.838 66.8439C232.693 66.6119 232.492 66.4328 232.237 66.3068C231.982 66.1808 231.692 66.1178 231.367 66.1177C231.032 66.1176 230.739 66.1871 230.487 66.3262C230.235 66.4621 230.039 66.6559 229.9 66.9077C229.764 67.1596 229.696 67.4595 229.696 67.8075L227.941 67.8071C227.941 67.1608 228.089 66.599 228.384 66.1218C228.679 65.6446 229.085 65.2752 229.602 65.0135C230.123 64.7518 230.719 64.621 231.392 64.6212C232.075 64.6214 232.675 64.7492 233.192 65.0045C233.709 65.2599 234.11 65.6097 234.395 66.0539C234.683 66.4981 234.827 67.0052 234.827 67.5753C234.827 67.9565 234.754 68.331 234.608 68.6988C234.462 69.0667 234.205 69.4743 233.837 69.9216C233.472 70.369 232.96 70.9107 232.3 71.5469L230.545 73.3312L230.545 73.4008L234.979 73.402L234.979 74.9432L227.999 74.9413ZM240.457 75.1386C239.639 75.1384 238.936 74.9311 238.35 74.5166C237.766 74.0988 237.318 73.4972 237.003 72.7116C236.692 71.9226 236.536 70.973 236.536 69.8627C236.54 68.7524 236.698 67.8078 237.009 67.029C237.325 66.2469 237.774 65.6504 238.357 65.2396C238.944 64.8288 239.645 64.6235 240.46 64.6237C241.276 64.624 241.977 64.8296 242.563 65.2408C243.15 65.6519 243.599 66.2486 243.91 67.0309C244.225 67.8132 244.382 68.7579 244.382 69.8649C244.381 70.9785 244.224 71.9297 243.908 72.7184C243.597 73.5039 243.147 74.1036 242.561 74.5178C241.977 74.9319 241.276 75.1389 240.457 75.1386ZM240.458 73.5825C241.094 73.5827 241.596 73.2696 241.965 72.6433C242.336 72.0137 242.522 71.0874 242.522 69.8644C242.522 69.0556 242.438 68.3762 242.269 67.8259C242.1 67.2757 241.862 66.8613 241.554 66.5828C241.245 66.301 240.881 66.1601 240.46 66.16C239.827 66.1598 239.326 66.4745 238.958 67.1041C238.59 67.7305 238.404 68.6502 238.401 69.8632C238.397 70.6752 238.478 71.358 238.644 71.9116C238.813 72.4651 239.051 72.8828 239.359 73.1646C239.667 73.4431 240.034 73.5824 240.458 73.5825Z" fill="#1D1E25"/>
<rect x="199.06" y="65.0759" width="10" height="10" rx="2" transform="rotate(0.0158183 199.06 65.0759)" fill="#2280FF"/>
<path d="M-8.96334 148.763C-4.46505 150.61 6.16998 155.759 12.7238 161.577C20.916 168.848 47.4246 176.818 63.3358 159.514C79.2471 142.21 86.479 135.981 98.0474 135.984C109.616 135.987 117.329 133.566 130.348 115.569C143.367 97.5723 147.614 88.8768 163.614 88.9237C179.082 88.9691 186.909 99.6613 190.603 105.547L199.275 119.05C202.808 124.705 212.31 134.284 226.224 135.307C240.138 136.331 250.837 131.158 261.936 122.529C272.272 114.492 290.379 105.921 305.799 122.541C318.135 135.837 324.432 140.547 326.039 141.24" stroke="#2280FF" stroke-width="3" stroke-linecap="round"/>
<path d="M-32.9958 155.621C-27.7856 156.967 -15.4674 160.719 -7.87605 164.957C1.61313 170.255 32.3166 176.063 50.7431 163.461C69.1696 150.859 77.5449 146.322 90.9435 146.326C104.342 146.33 113.275 144.567 128.352 131.46C143.429 118.352 148.347 112.019 166.878 112.055C184.793 112.09 193.859 119.879 198.138 124.167L208.184 134.003C212.277 138.123 223.283 145.101 239.399 145.848C255.514 146.595 267.906 142.829 280.759 136.545C292.73 130.692 313.701 124.451 331.562 136.559C345.851 146.245 353.145 149.676 355.006 150.181" stroke="#FF5555" stroke-width="3" stroke-linecap="round"/>
</g>
<rect x="-0.0463257" y="50.8784" width="59.78" height="203" transform="rotate(0.0158183 -0.0463257 50.8784)" fill="white"/>
<path d="M15.5127 60.1554L15.5103 68.8827L14.4535 68.8824L14.4556 61.263L14.4044 61.263L12.2734 62.6772L12.2737 61.6034L14.4559 60.1551L15.5127 60.1554ZM19.0612 66.4973L19.0445 65.253L19.249 65.253L22.1134 62.339L23.3578 62.3394L20.3058 65.4238L20.2205 65.4237L19.0612 66.4973ZM18.123 68.8834L18.1254 60.1561L19.1311 60.1564L19.1287 68.8837L18.123 68.8834ZM22.2821 68.8845L19.7262 65.6452L20.4423 64.9465L23.5605 68.8849L22.2821 68.8845Z" fill="#808D9E"/>
<path d="M22.5617 239.004C21.9197 239.004 21.3728 238.829 20.9212 238.479C20.4696 238.127 20.1246 237.617 19.8861 236.949C19.6477 236.279 19.5286 235.469 19.5289 234.52C19.5291 233.577 19.6487 232.772 19.8875 232.104C20.1291 231.434 20.4759 230.922 20.9277 230.57C21.3823 230.215 21.9278 230.038 22.5642 230.038C23.2006 230.038 23.7445 230.216 24.1961 230.571C24.6506 230.924 24.997 231.435 25.2355 232.106C25.4768 232.773 25.5973 233.579 25.597 234.522C25.5968 235.471 25.4772 236.28 25.2384 236.951C24.9996 237.618 24.6543 238.128 24.2025 238.48C23.7507 238.83 23.2038 239.004 22.5617 239.004ZM22.562 238.066C23.1983 238.067 23.6927 237.76 24.0452 237.146C24.3976 236.533 24.574 235.658 24.5743 234.522C24.5745 233.766 24.4937 233.122 24.3319 232.591C24.173 232.06 23.943 231.655 23.6419 231.376C23.3437 231.098 22.9844 230.959 22.5639 230.959C21.9333 230.958 21.4403 231.269 21.085 231.891C20.7297 232.511 20.5519 233.387 20.5516 234.52C20.5514 235.276 20.6307 235.918 20.7897 236.447C20.9486 236.975 21.1772 237.377 21.4754 237.653C21.7765 237.928 22.1387 238.066 22.562 238.066Z" fill="#808D9E"/>
<g clip-path="url(#clip8_1_2881)">
<path d="M2.64457 204.879L2.64478 204.112L5.52633 200.959C5.8645 200.59 6.143 200.269 6.36182 199.997C6.58065 199.721 6.74265 199.463 6.84783 199.221C6.95586 198.977 7.0099 198.721 7.00998 198.454C7.01006 198.147 6.93627 197.882 6.78861 197.657C6.64378 197.433 6.44497 197.259 6.19216 197.137C5.93935 197.015 5.65528 196.954 5.33994 196.954C5.00471 196.954 4.71208 197.023 4.46204 197.162C4.21484 197.299 4.02303 197.49 3.8866 197.737C3.753 197.985 3.68616 198.274 3.68607 198.607L2.68039 198.606C2.68053 198.095 2.79855 197.646 3.03445 197.26C3.27036 196.874 3.59146 196.573 3.99777 196.357C4.40692 196.141 4.86576 196.033 5.37428 196.033C5.88565 196.033 6.33874 196.141 6.73357 196.357C7.12839 196.574 7.43797 196.865 7.6623 197.231C7.88663 197.598 7.99874 198.006 7.99861 198.454C7.99852 198.775 7.9402 199.089 7.82364 199.396C7.70992 199.7 7.51096 200.04 7.22677 200.414C6.94541 200.787 6.55466 201.241 6.05451 201.778L4.09371 203.874L4.09369 203.942L8.15051 203.943L8.15025 204.881L2.64457 204.879ZM12.8425 205.001C12.2004 205.001 11.6536 204.826 11.202 204.477C10.7504 204.124 10.4053 203.614 10.1669 202.947C9.92844 202.276 9.80935 201.466 9.80961 200.517C9.80987 199.574 9.92941 198.769 10.1682 198.101C10.4099 197.431 10.7566 196.92 11.2084 196.568C11.6631 196.213 12.2086 196.035 12.8449 196.035C13.4813 196.035 14.0253 196.213 14.4769 196.568C14.9313 196.921 15.2778 197.432 15.5162 198.103C15.7575 198.77 15.8781 199.576 15.8778 200.519C15.8775 201.468 15.758 202.278 15.5192 202.948C15.2803 203.616 14.935 204.125 14.4832 204.478C14.0314 204.827 13.4845 205.001 12.8425 205.001ZM12.8427 204.064C13.4791 204.064 13.9735 203.757 14.3259 203.144C14.6784 202.53 14.8548 201.655 14.8551 200.519C14.8553 199.763 14.7745 199.12 14.6127 198.588C14.4538 198.057 14.2238 197.652 13.9227 197.374C13.6245 197.095 13.2651 196.956 12.8447 196.956C12.214 196.956 11.721 197.267 11.3657 197.889C11.0104 198.508 10.8327 199.384 10.8323 200.518C10.8321 201.273 10.9115 201.915 11.0704 202.444C11.2294 202.972 11.458 203.374 11.7562 203.65C12.0572 203.926 12.4194 204.064 12.8427 204.064ZM20.4282 205.003C19.7861 205.003 19.2393 204.828 18.7877 204.479C18.3361 204.126 17.9911 203.616 17.7526 202.949C17.5142 202.278 17.3951 201.468 17.3953 200.52C17.3956 199.576 17.5151 198.771 17.7539 198.103C17.9956 197.433 18.3423 196.922 18.7941 196.57C19.2488 196.215 19.7943 196.037 20.4307 196.037C21.067 196.038 21.611 196.215 22.0626 196.571C22.5171 196.923 22.8635 197.434 23.102 198.105C23.3432 198.773 23.4638 199.578 23.4635 200.521C23.4632 201.47 23.3437 202.28 23.1049 202.95C22.8661 203.618 22.5207 204.127 22.0689 204.48C21.6171 204.829 21.0702 205.003 20.4282 205.003ZM20.4284 204.066C21.0648 204.066 21.5592 203.759 21.9116 203.146C22.2641 202.532 22.4405 201.657 22.4408 200.521C22.441 199.765 22.3602 199.122 22.1984 198.59C22.0395 198.059 21.8095 197.654 21.5084 197.376C21.2102 197.097 20.8509 196.958 20.4304 196.958C19.7997 196.958 19.3067 197.269 18.9514 197.891C18.5962 198.51 18.4184 199.386 18.4181 200.52C18.4178 201.275 18.4972 201.918 18.6562 202.446C18.8151 202.974 19.0437 203.377 19.3419 203.652C19.643 203.928 20.0051 204.066 20.4284 204.066Z" fill="#808D9E"/>
</g>
<g clip-path="url(#clip9_1_2881)">
<path d="M2.44988 169.089L2.45012 168.22L6.28703 162.153L6.91771 162.153L6.91734 163.5L6.4912 163.5L3.59221 168.084L3.59219 168.152L8.75696 168.154L8.7567 169.091L2.44988 169.089ZM6.55734 170.88L6.55791 168.826L6.55802 168.421L6.55975 162.153L7.56544 162.153L7.56303 170.88L6.55734 170.88ZM13.2854 171.001C12.6434 171.001 12.0966 170.826 11.6449 170.477C11.1933 170.124 10.8483 169.614 10.6099 168.947C10.3714 168.276 10.2523 167.466 10.2526 166.518C10.2528 165.574 10.3724 164.769 10.6112 164.101C10.8529 163.431 11.1996 162.92 11.6514 162.568C12.106 162.213 12.6515 162.035 13.2879 162.035C13.9243 162.036 14.4683 162.213 14.9199 162.569C15.3743 162.921 15.7208 163.432 15.9592 164.103C16.2005 164.771 16.321 165.576 16.3208 166.519C16.3205 167.468 16.201 168.278 15.9621 168.948C15.7233 169.616 15.378 170.126 14.9262 170.478C14.4744 170.827 13.9275 171.002 13.2854 171.001ZM13.2857 170.064C13.922 170.064 14.4165 169.757 14.7689 169.144C15.1213 168.53 15.2977 167.655 15.298 166.519C15.2982 165.763 15.2174 165.12 15.0557 164.589C14.8967 164.057 14.6667 163.652 14.3657 163.374C14.0674 163.095 13.7081 162.956 13.2876 162.956C12.657 162.956 12.164 163.267 11.8087 163.889C11.4534 164.508 11.2756 165.384 11.2753 166.518C11.2751 167.274 11.3545 167.916 11.5134 168.444C11.6723 168.973 11.9009 169.375 12.1992 169.65C12.5002 169.926 12.8624 170.064 13.2857 170.064ZM20.8711 171.003C20.2291 171.003 19.6823 170.828 19.2307 170.479C18.7791 170.126 18.434 169.616 18.1956 168.949C17.9571 168.278 17.838 167.469 17.8383 166.52C17.8385 165.576 17.9581 164.771 18.1969 164.104C18.4386 163.433 18.7853 162.922 19.2371 162.57C19.6917 162.215 20.2373 162.037 20.8736 162.038C21.51 162.038 22.054 162.215 22.5056 162.571C22.96 162.923 23.3065 163.435 23.5449 164.105C23.7862 164.773 23.9067 165.578 23.9065 166.521C23.9062 167.47 23.7867 168.28 23.5478 168.95C23.309 169.618 22.9637 170.128 22.5119 170.48C22.0601 170.829 21.5132 171.004 20.8711 171.003ZM20.8714 170.066C21.5078 170.066 22.0022 169.759 22.3546 169.146C22.707 168.532 22.8834 167.657 22.8837 166.521C22.8839 165.765 22.8032 165.122 22.6414 164.591C22.4824 164.059 22.2524 163.654 21.9514 163.376C21.6532 163.097 21.2938 162.958 20.8734 162.958C20.2427 162.958 19.7497 163.269 19.3944 163.891C19.0391 164.51 18.8613 165.386 18.861 166.52C18.8608 167.276 18.9402 167.918 19.0991 168.446C19.2581 168.975 19.4866 169.377 19.7849 169.652C20.0859 169.928 20.4481 170.066 20.8714 170.066Z" fill="#808D9E"/>
</g>
<g clip-path="url(#clip10_1_2881)">
<path d="M5.56103 136.999C5.20308 136.993 4.84514 136.925 4.48722 136.794C4.1293 136.664 3.80266 136.443 3.50729 136.134C3.21192 135.821 2.97482 135.399 2.79599 134.868C2.61716 134.334 2.52786 133.663 2.52808 132.856C2.5283 132.084 2.60093 131.399 2.74598 130.802C2.89103 130.203 3.1014 129.699 3.37708 129.29C3.65276 128.878 3.98523 128.566 4.3745 128.353C4.7666 128.14 5.20839 128.033 5.69987 128.033C6.1885 128.034 6.62314 128.132 7.00376 128.328C7.38723 128.521 7.69966 128.791 7.94104 129.138C8.18242 129.484 8.33856 129.884 8.40946 130.335L7.36969 130.335C7.2732 129.943 7.08579 129.618 6.80746 129.359C6.52912 129.1 6.15984 128.971 5.69961 128.971C5.02347 128.971 4.49072 129.265 4.10135 129.853C3.71483 130.44 3.52 131.266 3.51686 132.328L3.58505 132.328C3.7442 132.087 3.93318 131.881 4.15198 131.711C4.37362 131.537 4.61797 131.404 4.88504 131.31C5.15211 131.216 5.4348 131.17 5.73309 131.17C6.23309 131.17 6.69044 131.295 7.10515 131.545C7.51985 131.792 7.85215 132.135 8.10202 132.572C8.3519 133.007 8.47677 133.506 8.47661 134.068C8.47646 134.608 8.35559 135.102 8.11399 135.551C7.87239 135.997 7.5328 136.352 7.09523 136.616C6.66049 136.877 6.1491 137.005 5.56103 136.999ZM5.56129 136.062C5.91924 136.062 6.24029 135.972 6.52443 135.794C6.81141 135.615 7.03733 135.375 7.20219 135.074C7.36988 134.772 7.45378 134.437 7.45388 134.068C7.45398 133.707 7.37311 133.379 7.21126 133.084C7.05225 132.785 6.83214 132.548 6.55094 132.372C6.27258 132.195 5.95443 132.107 5.59647 132.107C5.32658 132.107 5.07515 132.161 4.84216 132.269C4.60918 132.374 4.4046 132.519 4.22841 132.703C4.05506 132.888 3.91864 133.1 3.81914 133.338C3.71965 133.574 3.66986 133.823 3.66979 134.084C3.66969 134.431 3.75057 134.754 3.91242 135.056C4.07711 135.357 4.30147 135.6 4.58551 135.784C4.87239 135.969 5.19765 136.062 5.56129 136.062ZM13.0839 137.001C12.4418 137.001 11.895 136.826 11.4434 136.477C10.9918 136.124 10.6468 135.614 10.4083 134.947C10.1699 134.276 10.0508 133.466 10.051 132.518C10.0513 131.574 10.1708 130.769 10.4097 130.101C10.6513 129.431 10.9981 128.92 11.4499 128.568C11.9045 128.213 12.45 128.035 13.0864 128.035C13.7227 128.036 14.2667 128.213 14.7183 128.569C15.1728 128.921 15.5192 129.432 15.7577 130.103C15.999 130.771 16.1195 131.576 16.1192 132.519C16.119 133.468 15.9994 134.278 15.7606 134.948C15.5218 135.616 15.1765 136.125 14.7247 136.478C14.2729 136.827 13.7259 137.001 13.0839 137.001ZM13.0841 136.064C13.7205 136.064 14.2149 135.757 14.5674 135.144C14.9198 134.53 15.0962 133.655 15.0965 132.519C15.0967 131.763 15.0159 131.12 14.8541 130.588C14.6952 130.057 14.4652 129.652 14.1641 129.374C13.8659 129.095 13.5066 128.956 13.0861 128.956C12.4554 128.956 11.9624 129.267 11.6072 129.889C11.2519 130.508 11.0741 131.384 11.0738 132.518C11.0736 133.273 11.1529 133.916 11.3119 134.444C11.4708 134.972 11.6994 135.375 11.9976 135.65C12.2987 135.926 12.6609 136.064 13.0841 136.064ZM20.6696 137.003C20.0276 137.003 19.4807 136.828 19.0291 136.479C18.5775 136.126 18.2325 135.616 17.994 134.949C17.7556 134.278 17.6365 133.468 17.6367 132.52C17.637 131.576 17.7565 130.771 17.9954 130.104C18.237 129.433 18.5838 128.922 19.0356 128.57C19.4902 128.215 20.0357 128.037 20.6721 128.038C21.3084 128.038 21.8524 128.215 22.304 128.571C22.7585 128.923 23.1049 129.434 23.3434 130.105C23.5847 130.773 23.7052 131.578 23.7049 132.521C23.7047 133.47 23.5851 134.28 23.3463 134.95C23.1075 135.618 22.7622 136.128 22.3104 136.48C21.8586 136.829 21.3116 137.004 20.6696 137.003ZM20.6699 136.066C21.3062 136.066 21.8006 135.759 22.1531 135.146C22.5055 134.532 22.6819 133.657 22.6822 132.521C22.6824 131.765 22.6016 131.122 22.4398 130.591C22.2809 130.059 22.0509 129.654 21.7498 129.376C21.4516 129.097 21.0923 128.958 20.6718 128.958C20.0411 128.958 19.5482 129.269 19.1929 129.891C18.8376 130.51 18.6598 131.386 18.6595 132.52C18.6593 133.276 18.7386 133.918 18.8976 134.446C19.0565 134.975 19.2851 135.377 19.5833 135.652C19.8844 135.928 20.2466 136.066 20.6699 136.066Z" fill="#808D9E"/>
</g>
<g clip-path="url(#clip11_1_2881)">
<path d="M5.46813 102.999C4.8829 102.999 4.36588 102.895 3.91708 102.688C3.47111 102.477 3.12318 102.189 2.87328 101.822C2.62338 101.453 2.49992 101.032 2.50289 100.561C2.50015 100.192 2.57269 99.8507 2.7205 99.5382C2.86832 99.2229 3.07009 98.9602 3.32583 98.75C3.58441 98.537 3.8728 98.4022 4.191 98.3455L4.19102 98.2943C3.77343 98.1862 3.44111 97.9518 3.19405 97.5909C2.94699 97.2272 2.82495 96.8138 2.82792 96.3508C2.8252 95.9076 2.93752 95.5113 3.16489 95.1619C3.39226 94.8126 3.70484 94.5371 4.10262 94.3355C4.50324 94.1339 4.95924 94.0332 5.4706 94.0333C5.97628 94.0334 6.42796 94.1344 6.82563 94.3362C7.2233 94.5381 7.53573 94.8137 7.7629 95.1632C7.99292 95.5127 8.10929 95.909 8.11201 96.3522C8.10904 96.8153 7.9825 97.2286 7.7324 97.5922C7.48514 97.9529 7.15695 98.1872 6.74783 98.295L6.74782 98.3462C7.06314 98.4031 7.3472 98.5381 7.59998 98.7512C7.85276 98.9615 8.05439 99.2244 8.20488 99.5397C8.35536 99.8523 8.43197 100.193 8.43471 100.563C8.43174 101.034 8.30378 101.455 8.05084 101.824C7.80074 102.19 7.45264 102.478 7.00656 102.689C6.56332 102.896 6.05051 102.999 5.46813 102.999ZM5.46838 102.062C5.86327 102.062 6.2042 101.998 6.49116 101.87C6.77813 101.742 6.99977 101.562 7.15609 101.329C7.3124 101.096 7.39202 100.824 7.39495 100.511C7.3922 100.182 7.30705 99.8903 7.13951 99.6375C6.97196 99.3846 6.74333 99.1856 6.45359 99.0407C6.1667 98.8957 5.8386 98.8232 5.46928 98.8231C5.09712 98.823 4.76471 98.8953 4.47206 99.0401C4.18225 99.1849 3.9535 99.3837 3.78582 99.6365C3.62097 99.8893 3.53993 100.18 3.54268 100.51C3.53975 100.823 3.61496 101.095 3.7683 101.328C3.92449 101.561 4.14745 101.742 4.43719 101.87C4.72692 101.998 5.07066 102.062 5.46838 102.062ZM5.46953 97.9197C5.78203 97.9198 6.05903 97.8573 6.30055 97.7324C6.5449 97.6075 6.73671 97.4328 6.87597 97.2084C7.01524 96.984 7.08634 96.7213 7.08926 96.4201C7.0865 96.1247 7.01697 95.8675 6.88067 95.6488C6.74436 95.4271 6.55549 95.2566 6.31405 95.1372C6.0726 95.015 5.79137 94.9538 5.47035 94.9538C5.14364 94.9537 4.85811 95.0147 4.61376 95.1368C4.36941 95.256 4.18044 95.4264 4.04686 95.648C3.91328 95.8667 3.84786 96.1238 3.85062 96.4192C3.8477 96.7204 3.91439 96.9832 4.05069 97.2076C4.18983 97.4321 4.38155 97.6069 4.62583 97.7319C4.87011 97.857 5.15135 97.9196 5.46953 97.9197ZM12.9995 103.001C12.3575 103.001 11.8106 102.826 11.359 102.477C10.9074 102.124 10.5624 101.614 10.3239 100.947C10.0855 100.276 9.96639 99.4664 9.96665 98.5175C9.96691 97.5743 10.0865 96.769 10.3253 96.1014C10.5669 95.431 10.9137 94.9198 11.3655 94.5676C11.8201 94.2126 12.3656 94.0352 13.002 94.0354C13.6383 94.0356 14.1823 94.2133 14.6339 94.5685C15.0884 94.9209 15.4348 95.4324 15.6733 96.1029C15.9146 96.7706 16.0351 97.576 16.0348 98.5192C16.0346 99.468 15.915 100.278 15.6762 100.948C15.4374 101.616 15.0921 102.125 14.6403 102.478C14.1885 102.827 13.6416 103.001 12.9995 103.001ZM12.9998 102.064C13.6361 102.064 14.1305 101.757 14.483 101.144C14.8354 100.53 15.0118 99.6553 15.0121 98.5189C15.0123 97.7632 14.9315 97.1197 14.7697 96.5884C14.6108 96.0571 14.3808 95.6522 14.0797 95.3738C13.7815 95.0953 13.4222 94.956 13.0017 94.9558C12.371 94.9557 11.8781 95.2666 11.5228 95.8887C11.1675 96.5079 10.9897 97.3843 10.9894 98.5178C10.9892 99.2735 11.0685 99.9155 11.2275 100.444C11.3864 100.972 11.615 101.374 11.9132 101.65C12.2143 101.926 12.5765 102.064 12.9998 102.064ZM20.5852 103.003C19.9432 103.003 19.3963 102.828 18.9447 102.479C18.4931 102.126 18.1481 101.616 17.9097 100.949C17.6712 100.278 17.5521 99.4685 17.5524 98.5196C17.5526 97.5764 17.6722 96.771 17.911 96.1035C18.1527 95.4331 18.4994 94.9218 18.9512 94.5697C19.4058 94.2147 19.9513 94.0373 20.5877 94.0375C21.2241 94.0377 21.768 94.2154 22.2197 94.5706C22.6741 94.923 23.0205 95.4345 23.259 96.105C23.5003 96.7727 23.6208 97.5781 23.6205 98.5213C23.6203 99.4701 23.5007 100.28 23.2619 100.95C23.0231 101.618 22.6778 102.128 22.226 102.48C21.7742 102.829 21.2273 103.004 20.5852 103.003ZM20.5855 102.066C21.2218 102.066 21.7162 101.759 22.0687 101.146C22.4211 100.532 22.5975 99.6574 22.5978 98.521C22.598 97.7653 22.5172 97.1218 22.3555 96.5905C22.1965 96.0592 21.9665 95.6543 21.6655 95.3758C21.3672 95.0974 21.0079 94.958 20.5874 94.9579C19.9568 94.9578 19.4638 95.2687 19.1085 95.8908C18.7532 96.51 18.5754 97.3864 18.5751 98.5199C18.5749 99.2756 18.6543 99.9176 18.8132 100.446C18.9721 100.975 19.2007 101.377 19.4989 101.652C19.8 101.928 20.1622 102.066 20.5855 102.066Z" fill="#808D9E"/>
</g>
<g filter="url(#filter1_d_1_2881)">
<rect x="172.054" y="84.9259" width="14" height="14" rx="7" transform="rotate(0.0158183 172.054 84.9259)" fill="#2280FF"/>
<rect x="173.054" y="85.9261" width="12" height="12" rx="6" transform="rotate(0.0158183 173.054 85.9261)" stroke="white" stroke-width="2"/>
</g>
<rect x="169.543" y="15.9252" width="12.2" height="10" rx="2" transform="rotate(0.0158183 169.543 15.9252)" fill="#FF5555"/>
<path d="M200.929 18.9339L199.696 18.9335C199.623 18.5789 199.495 18.2673 199.313 17.9988C199.134 17.7303 198.916 17.5048 198.657 17.3225C198.402 17.1368 198.119 16.9975 197.807 16.9046C197.496 16.8117 197.171 16.7652 196.833 16.7651C196.216 16.765 195.658 16.9206 195.157 17.232C194.66 17.5434 194.264 18.0023 193.969 18.6088C193.677 19.2153 193.531 19.9593 193.53 20.8409C193.53 21.7226 193.676 22.4667 193.967 23.0733C194.262 23.6799 194.658 24.1391 195.155 24.4507C195.656 24.7624 196.214 24.9184 196.83 24.9185C197.168 24.9186 197.493 24.8723 197.805 24.7796C198.116 24.6869 198.4 24.5494 198.655 24.3672C198.914 24.1817 199.133 23.9547 199.312 23.6863C199.494 23.4145 199.622 23.103 199.695 22.7517L200.928 22.7521C200.835 23.2724 200.665 23.738 200.42 24.1489C200.175 24.5599 199.87 24.9094 199.505 25.1977C199.14 25.4826 198.731 25.6996 198.277 25.8486C197.826 25.9977 197.344 26.0721 196.83 26.0719C195.962 26.0717 195.19 25.8594 194.514 25.4349C193.837 25.0105 193.306 24.4072 192.918 23.6248C192.531 22.8425 192.337 21.9145 192.337 20.8406C192.338 19.7667 192.532 18.8388 192.92 18.0567C193.308 17.2746 193.84 16.6715 194.516 16.2474C195.192 15.8234 195.965 15.6115 196.833 15.6117C197.347 15.6119 197.829 15.6866 198.28 15.8358C198.734 15.9851 199.143 16.204 199.507 16.4924C199.872 16.7776 200.177 17.1257 200.422 17.5367C200.667 17.9445 200.836 18.4102 200.929 18.9339ZM205.362 26.0942C204.673 26.094 204.068 25.9298 203.548 25.6015C203.031 25.2732 202.627 24.8141 202.335 24.224C202.047 23.634 201.903 22.9446 201.903 22.1557C201.903 21.3603 202.048 20.666 202.336 20.0728C202.628 19.4796 203.033 19.019 203.55 18.691C204.07 18.363 204.675 18.1991 205.364 18.1993C206.054 18.1995 206.657 18.3637 207.174 18.692C207.694 19.0203 208.098 19.4811 208.387 20.0744C208.678 20.6678 208.824 21.3622 208.824 22.1576C208.823 22.9465 208.677 23.6358 208.385 24.2257C208.097 24.8156 207.692 25.2745 207.172 25.6025C206.655 25.9305 206.052 26.0944 205.362 26.0942ZM205.363 25.0402C205.886 25.0404 206.317 24.9062 206.655 24.6379C206.993 24.3695 207.244 24.0166 207.406 23.5791C207.569 23.1417 207.65 22.6677 207.65 22.1573C207.65 21.6469 207.569 21.1713 207.407 20.7304C207.245 20.2895 206.995 19.9332 206.657 19.6613C206.319 19.3894 205.888 19.2534 205.364 19.2533C204.84 19.2531 204.41 19.3889 204.071 19.6606C203.733 19.9323 203.483 20.2885 203.32 20.7293C203.158 21.1701 203.077 21.6456 203.076 22.1561C203.076 22.6665 203.157 23.1405 203.32 23.578C203.482 24.0155 203.732 24.3686 204.07 24.6372C204.408 24.9057 204.839 25.0401 205.363 25.0402ZM210.114 25.9364L210.116 18.3L211.249 18.3004L211.249 19.4935L211.348 19.4936C211.507 19.0859 211.764 18.7695 212.119 18.5442C212.474 18.3156 212.9 18.2014 213.397 18.2015C213.901 18.2017 214.32 18.3161 214.655 18.5449C214.993 18.7704 215.256 19.087 215.445 19.4947L215.524 19.4947C215.72 19.1004 216.013 18.7872 216.405 18.5553C216.796 18.3201 217.265 18.2026 217.812 18.2027C218.494 18.2029 219.053 18.4169 219.487 18.8445C219.921 19.2689 220.138 19.9302 220.138 20.8284L220.136 25.9392L218.963 25.9389L218.964 20.8281C218.965 20.2646 218.811 19.8619 218.502 19.6198C218.194 19.3778 217.831 19.2567 217.414 19.2566C216.877 19.2565 216.461 19.4188 216.166 19.7435C215.871 20.0649 215.723 20.4725 215.723 20.9664L215.721 25.938L214.528 25.9376L214.53 20.7075C214.53 20.2733 214.389 19.9236 214.107 19.6584C213.826 19.3899 213.463 19.2555 213.019 19.2554C212.714 19.2553 212.429 19.3364 212.164 19.4988C211.902 19.6611 211.69 19.8864 211.527 20.1747C211.368 20.4597 211.288 20.7895 211.288 21.164L211.287 25.9367L210.114 25.9364ZM221.781 28.8033L221.784 18.3033L222.917 18.3036L222.917 19.5167L223.056 19.5167C223.142 19.3841 223.262 19.2151 223.414 19.0097C223.57 18.8009 223.792 18.6154 224.08 18.4531C224.372 18.2874 224.767 18.2047 225.264 18.2048C225.907 18.205 226.473 18.3659 226.964 18.6875C227.454 19.0091 227.837 19.465 228.112 20.055C228.387 20.6451 228.524 21.3411 228.524 22.1432C228.524 22.9519 228.386 23.6529 228.111 24.2461C227.836 24.836 227.454 25.2932 226.967 25.6179C226.48 25.9393 225.918 26.0999 225.281 26.0997C224.791 26.0996 224.398 26.0182 224.103 25.8558C223.808 25.69 223.581 25.5026 223.422 25.2938C223.263 25.0816 223.141 24.9059 223.055 24.7667L222.955 24.7667L222.954 28.8036L221.781 28.8033ZM222.936 22.1218C222.936 22.6985 223.02 23.2073 223.189 23.6481C223.358 24.0857 223.605 24.4288 223.93 24.6774C224.254 24.9228 224.652 25.0455 225.123 25.0457C225.613 25.0458 226.023 24.9167 226.351 24.6582C226.682 24.3965 226.931 24.0452 227.097 23.6045C227.266 23.1604 227.351 22.6665 227.351 22.123C227.351 21.5861 227.268 21.1021 227.103 20.6712C226.94 20.237 226.693 19.8939 226.362 19.6419C226.034 19.3866 225.621 19.2589 225.124 19.2587C224.647 19.2586 224.246 19.3795 223.921 19.6213C223.596 19.8599 223.351 20.1946 223.185 20.6254C223.019 21.0529 222.936 21.5517 222.936 22.1218ZM233.014 26.1018C232.279 26.1016 231.644 25.939 231.11 25.6141C230.58 25.2858 230.171 24.8283 229.883 24.2416C229.598 23.6515 229.456 22.9654 229.456 22.1832C229.456 21.401 229.599 20.7117 229.884 20.1152C230.172 19.5153 230.574 19.0481 231.087 18.7135C231.605 18.3756 232.208 18.2067 232.897 18.2069C233.295 18.207 233.688 18.2734 234.075 18.4061C234.463 18.5388 234.816 18.7543 235.134 19.0527C235.452 19.3478 235.706 19.7389 235.895 20.2262C236.083 20.7135 236.178 21.3134 236.177 22.026L236.177 22.5232L230.291 22.5215L230.291 21.5073L234.984 21.5086C234.985 21.0777 234.898 20.6933 234.726 20.3551C234.557 20.017 234.315 19.7501 234.001 19.5545C233.689 19.3589 233.321 19.261 232.897 19.2609C232.43 19.2608 232.025 19.3766 231.684 19.6086C231.346 19.8372 231.085 20.1354 230.903 20.5032C230.721 20.8711 230.629 21.2655 230.629 21.6864L230.629 22.3625C230.629 22.9392 230.728 23.4281 230.927 23.8292C231.129 24.227 231.409 24.5304 231.767 24.7393C232.125 24.9449 232.541 25.0477 233.015 25.0478C233.323 25.0479 233.601 25.0049 233.85 24.9188C234.102 24.8294 234.319 24.6969 234.501 24.5213C234.684 24.3423 234.825 24.1203 234.924 23.8552L236.058 24.1737C235.938 24.5581 235.737 24.8961 235.456 25.1877C235.174 25.476 234.826 25.7013 234.411 25.8636C233.997 26.0226 233.531 26.102 233.014 26.1018ZM240.784 18.3085L240.784 19.3028L236.827 19.3017L236.827 18.3074L240.784 18.3085ZM237.981 16.4782L239.154 16.4785L239.152 23.7569C239.152 24.0884 239.2 24.337 239.296 24.5027C239.395 24.6651 239.521 24.7746 239.674 24.8309C239.83 24.884 239.994 24.9106 240.166 24.9106C240.295 24.9107 240.401 24.9041 240.484 24.8908C240.567 24.8743 240.633 24.861 240.683 24.8511L240.921 25.9051C240.842 25.935 240.731 25.9648 240.588 25.9945C240.446 26.0276 240.265 26.0442 240.046 26.0441C239.715 26.044 239.39 25.9727 239.072 25.8301C238.757 25.6875 238.495 25.4703 238.287 25.1786C238.081 24.8868 237.979 24.5189 237.979 24.0748L237.981 16.4782ZM242.047 25.9452L242.049 18.3089L243.223 18.3092L243.22 25.9456L242.047 25.9452ZM242.646 17.0363C242.417 17.0362 242.22 16.9583 242.055 16.8025C241.892 16.6467 241.811 16.4594 241.811 16.2406C241.811 16.0219 241.892 15.8346 242.055 15.6789C242.221 15.5232 242.418 15.4453 242.647 15.4454C242.875 15.4455 243.071 15.5234 243.233 15.6792C243.399 15.835 243.482 16.0223 243.482 16.2411C243.482 16.4598 243.399 16.6471 243.233 16.8028C243.07 16.9585 242.875 17.0364 242.646 17.0363ZM248.193 18.3106L248.192 19.3049L244.235 19.3038L244.235 18.3095L248.193 18.3106ZM245.389 16.4802L246.562 16.4806L246.56 23.759C246.56 24.0904 246.608 24.339 246.704 24.5048C246.804 24.6672 246.93 24.7766 247.082 24.833C247.238 24.8861 247.402 24.9126 247.574 24.9127C247.703 24.9127 247.81 24.9061 247.892 24.8929C247.975 24.8763 248.042 24.8631 248.091 24.8531L248.33 25.9072C248.25 25.937 248.139 25.9668 247.996 25.9966C247.854 26.0297 247.673 26.0462 247.455 26.0462C247.123 26.0461 246.798 25.9747 246.48 25.8321C246.165 25.6895 245.904 25.4723 245.695 25.1806C245.489 24.8889 245.387 24.521 245.387 24.0768L245.389 16.4802ZM252.476 26.1072C251.786 26.107 251.181 25.9428 250.661 25.6145C250.144 25.2862 249.74 24.8271 249.448 24.237C249.16 23.647 249.016 22.9576 249.016 22.1687C249.017 21.3733 249.161 20.679 249.449 20.0858C249.741 19.4926 250.146 19.032 250.663 18.704C251.183 18.376 251.788 18.2121 252.478 18.2123C253.167 18.2125 253.77 18.3767 254.287 18.705C254.807 19.0333 255.212 19.4941 255.5 20.0874C255.791 20.6808 255.937 21.3752 255.937 22.1707C255.937 22.9595 255.791 23.6488 255.499 24.2387C255.21 24.8286 254.806 25.2875 254.285 25.6155C253.768 25.9435 253.165 26.1074 252.476 26.1072ZM252.476 25.0532C252.999 25.0534 253.43 24.9193 253.769 24.6509C254.107 24.3825 254.357 24.0296 254.52 23.5921C254.682 23.1547 254.763 22.6807 254.764 22.1703C254.764 21.6599 254.683 21.1843 254.52 20.7434C254.358 20.3026 254.108 19.9462 253.77 19.6743C253.432 19.4024 253.001 19.2664 252.477 19.2663C251.954 19.2661 251.523 19.4019 251.185 19.6736C250.847 19.9453 250.596 20.3015 250.434 20.7423C250.271 21.1831 250.19 21.6587 250.19 22.1691C250.19 22.6795 250.271 23.1535 250.433 23.591C250.595 24.0286 250.845 24.3816 251.183 24.6502C251.521 24.9187 251.952 25.0531 252.476 25.0532ZM257.227 25.9494L257.229 18.3131L258.362 18.3134L258.362 19.4668L258.442 19.4668C258.581 19.089 258.833 18.7825 259.198 18.5473C259.562 18.312 259.973 18.1945 260.431 18.1946C260.517 18.1946 260.625 18.1963 260.754 18.1997C260.883 18.203 260.981 18.208 261.047 18.2147L261.047 19.4079C261.007 19.3979 260.916 19.383 260.773 19.363C260.634 19.3398 260.487 19.3282 260.331 19.3281C259.96 19.328 259.628 19.4058 259.337 19.5615C259.048 19.7139 258.819 19.9259 258.65 20.1977C258.484 20.4661 258.402 20.7727 258.401 21.1174L258.4 25.9497L257.227 25.9494Z" fill="#1D1E25"/>
<rect x="1.18335" y="15.8787" width="12.2" height="10" rx="2" transform="rotate(0.0158183 1.18335 15.8787)" fill="#2280FF"/>
<path d="M24.3763 15.7033L25.8479 15.7037L29.3058 24.1564L29.4251 24.1564L32.8877 15.7057L34.3593 15.7061L34.3565 25.8879L33.2031 25.8876L33.2052 18.1518L33.1058 18.1518L29.9218 25.8867L28.8082 25.8864L25.6285 18.1497L25.5291 18.1497L25.5269 25.8855L24.3735 25.8851L24.3763 15.7033ZM36.9244 28.7522C36.7255 28.7522 36.5482 28.7356 36.3925 28.7024C36.2367 28.6725 36.129 28.6426 36.0693 28.6128L36.3679 27.5788C36.6529 27.6518 36.9048 27.6784 37.1236 27.6585C37.3423 27.6387 37.5362 27.541 37.7053 27.3654C37.8777 27.1931 38.0352 26.9131 38.1779 26.5253L38.3968 25.9288L35.575 18.2519L36.8478 18.2522L38.954 24.338L39.0336 24.338L41.1432 18.2534L42.4159 18.2538L39.172 27.0029C39.0261 27.3972 38.8454 27.7236 38.6299 27.9821C38.4144 28.2439 38.1641 28.4377 37.879 28.5636C37.5972 28.6894 37.279 28.7523 36.9244 28.7522ZM46.8992 28.755L46.9021 18.255L48.0356 18.2553L48.0353 19.4684L48.1745 19.4684C48.2607 19.3359 48.3801 19.1669 48.5326 18.9614C48.6884 18.7526 48.9105 18.5671 49.1989 18.4048C49.4906 18.2391 49.8851 18.1564 50.3822 18.1565C51.0252 18.1567 51.5919 18.3176 52.0824 18.6392C52.5728 18.9609 52.9555 19.4167 53.2304 20.0067C53.5054 20.5968 53.6427 21.2928 53.6425 22.0949C53.6423 22.9036 53.5045 23.6046 53.2293 24.1978C52.954 24.7877 52.5727 25.245 52.0854 25.5696C51.5981 25.891 51.0363 26.0516 50.3999 26.0514C49.9094 26.0513 49.5167 25.97 49.2217 25.8075C48.9268 25.6417 48.6998 25.4544 48.5408 25.2455C48.3818 25.0333 48.2592 24.8576 48.173 24.7184L48.0736 24.7184L48.0725 28.7553L46.8992 28.755ZM48.0544 22.0735C48.0543 22.6502 48.1387 23.159 48.3076 23.5998C48.4765 24.0374 48.7233 24.3805 49.0481 24.6292C49.3728 24.8745 49.7705 24.9973 50.2411 24.9974C50.7317 24.9975 51.141 24.8684 51.4692 24.6099C51.8007 24.3482 52.0494 23.9969 52.2153 23.5562C52.3844 23.1121 52.4691 22.6183 52.4692 22.0747C52.4694 21.5378 52.3866 21.0539 52.221 20.6229C52.0588 20.1887 51.8119 19.8456 51.4806 19.5936C51.1525 19.3383 50.7399 19.2106 50.2427 19.2105C49.7655 19.2103 49.3644 19.3312 49.0395 19.5731C48.7146 19.8116 48.4693 20.1463 48.3034 20.5771C48.1376 21.0046 48.0546 21.5034 48.0544 22.0735ZM54.9312 25.8936L54.9333 18.2572L56.0669 18.2575L56.0665 19.4109L56.1461 19.411C56.2854 19.0332 56.5374 18.7266 56.902 18.4914C57.2667 18.2562 57.6777 18.1386 58.1351 18.1388C58.2213 18.1388 58.329 18.1405 58.4582 18.1438C58.5875 18.1472 58.6853 18.1522 58.7515 18.1588L58.7512 19.352C58.7114 19.3421 58.6203 19.3271 58.4778 19.3072C58.3386 19.284 58.1911 19.2723 58.0353 19.2723C57.6641 19.2722 57.3327 19.35 57.0409 19.5057C56.7526 19.658 56.5238 19.8701 56.3547 20.1418C56.1889 20.4103 56.106 20.7168 56.1059 21.0615L56.1045 25.8939L54.9312 25.8936ZM62.51 26.0548C61.8206 26.0546 61.2158 25.8903 60.6955 25.5621C60.1786 25.2338 59.7743 24.7746 59.4828 24.1846C59.1946 23.5946 59.0507 22.9051 59.0509 22.1163C59.0511 21.3208 59.1955 20.6265 59.484 20.0333C59.7758 19.4401 60.1803 18.9795 60.6974 18.6516C61.2179 18.3236 61.8228 18.1597 62.5122 18.1599C63.2016 18.1601 63.8048 18.3243 64.3217 18.6526C64.842 18.9808 65.2462 19.4416 65.5344 20.035C65.8259 20.6284 65.9716 21.3228 65.9713 22.1182C65.9711 22.907 65.8251 23.5964 65.5333 24.1863C65.2447 24.7762 64.8403 25.2351 64.3198 25.5631C63.8027 25.891 63.1994 26.0549 62.51 26.0548ZM62.5103 25.0008C63.034 25.0009 63.4649 24.8668 63.803 24.5984C64.1412 24.3301 64.3915 23.9771 64.554 23.5397C64.7166 23.1022 64.7979 22.6283 64.798 22.1179C64.7982 21.6075 64.7171 21.1318 64.5548 20.691C64.3925 20.2501 64.1424 19.8937 63.8044 19.6219C63.4664 19.35 63.0356 19.214 62.5119 19.2138C61.9882 19.2137 61.5573 19.3495 61.2192 19.6212C60.881 19.8928 60.6307 20.2491 60.4682 20.6898C60.3057 21.1306 60.2243 21.6062 60.2242 22.1166C60.224 22.627 60.3051 23.101 60.4674 23.5386C60.6297 23.9761 60.8798 24.3292 61.2178 24.5977C61.5558 24.8663 61.9866 25.0006 62.5103 25.0008ZM70.1448 26.0569C69.5084 26.0567 68.9467 25.8958 68.4596 25.5742C67.9724 25.2492 67.5914 24.7917 67.3165 24.2017C67.0415 23.6083 66.9042 22.9073 66.9044 22.0986C66.9046 21.2965 67.0424 20.6005 67.3176 20.0106C67.5929 19.4207 67.9758 18.9651 68.4664 18.6438C68.9571 18.3224 69.5239 18.1618 70.1669 18.162C70.664 18.1621 71.0567 18.2451 71.3451 18.4109C71.6367 18.5734 71.8587 18.759 72.0111 18.9679C72.1668 19.1734 72.2877 19.3425 72.3739 19.4751L72.4733 19.4751L72.4743 15.7166L73.6476 15.7169L73.6448 25.8987L72.5113 25.8984L72.5116 24.7251L72.3724 24.7251C72.2862 24.8643 72.1635 25.0399 72.0044 25.252C71.8452 25.4607 71.6181 25.6479 71.3231 25.8136C71.0281 25.9759 70.6353 26.057 70.1448 26.0569ZM70.3042 25.0029C70.7748 25.0031 71.1726 24.8805 71.4975 24.6354C71.8223 24.3869 72.0693 24.0439 72.2385 23.6064C72.4077 23.1657 72.4923 22.6569 72.4925 22.0802C72.4926 21.5102 72.4099 21.0113 72.2443 20.5837C72.0787 20.1528 71.8335 19.818 71.5088 19.5793C71.184 19.3372 70.783 19.2161 70.3058 19.216C69.8086 19.2159 69.3943 19.3434 69.0628 19.5985C68.7346 19.8503 68.4876 20.1932 68.3217 20.6274C68.1592 21.0582 68.0779 21.5421 68.0777 22.079C68.0776 22.6226 68.1603 23.1164 68.3259 23.5606C68.4948 24.0015 68.7433 24.3529 69.0713 24.6148C69.4027 24.8734 69.8136 25.0028 70.3042 25.0029ZM80.27 22.7784L80.2712 18.2642L81.4445 18.2645L81.4424 25.9009L80.2691 25.9006L80.2695 24.608L80.1899 24.6079C80.0108 24.9957 79.7323 25.3254 79.3544 25.597C78.9765 25.8654 78.4992 25.9995 77.9225 25.9994C77.4452 25.9992 77.021 25.8947 76.6499 25.6858C76.2787 25.4736 75.9871 25.1553 75.7751 24.731C75.5631 24.3034 75.4572 23.7648 75.4574 23.1151L75.4587 18.2629L76.632 18.2632L76.6307 23.0359C76.6306 23.5927 76.7862 24.0369 77.0977 24.3684C77.4124 24.7 77.8134 24.8658 78.3007 24.8659C78.5923 24.866 78.889 24.7915 79.1906 24.6425C79.4956 24.4934 79.7509 24.2648 79.9564 23.9566C80.1653 23.6484 80.2698 23.2557 80.27 22.7784ZM86.1936 26.0613C85.4777 26.0611 84.8613 25.8919 84.3443 25.5537C83.8274 25.2155 83.4298 24.7497 83.1515 24.1563C82.8733 23.563 82.7343 22.8851 82.7345 22.1228C82.7347 21.3473 82.8774 20.6629 83.1626 20.0697C83.4511 19.4732 83.8523 19.0076 84.3661 18.673C84.8832 18.3351 85.4865 18.1662 86.1759 18.1664C86.7128 18.1666 87.1967 18.2661 87.6275 18.4651C88.0583 18.6641 88.4113 18.9426 88.6862 19.3006C88.9612 19.6586 89.1318 20.0763 89.198 20.5536L88.0247 20.5533C87.9353 20.2052 87.7365 19.8969 87.4283 19.6284C87.1235 19.3565 86.7125 19.2205 86.1955 19.2204C85.7381 19.2203 85.337 19.3395 84.9923 19.578C84.6508 19.8132 84.3839 20.1463 84.1916 20.5771C84.0025 21.0046 83.9079 21.5067 83.9078 22.0834C83.9076 22.6734 84.0003 23.1871 84.1858 23.6247C84.3746 24.0622 84.6396 24.402 84.9809 24.6441C85.3256 24.8861 85.7299 25.0072 86.1939 25.0073C86.4988 25.0074 86.7756 24.9544 87.0242 24.8485C87.2728 24.7425 87.4833 24.5901 87.6557 24.3912C87.8281 24.1924 87.9508 23.9538 88.0238 23.6754L89.1971 23.6758C89.1307 24.1265 88.9665 24.5325 88.7046 24.8937C88.446 25.2515 88.1028 25.5365 87.6752 25.7485C87.2509 25.9572 86.7571 26.0614 86.1936 26.0613ZM93.7348 18.2679L93.7346 19.2622L89.7772 19.2611L89.7774 18.2668L93.7348 18.2679ZM90.9314 16.4376L92.1047 16.4379L92.1026 23.7163C92.1026 24.0478 92.1505 24.2964 92.2466 24.4621C92.346 24.6245 92.4719 24.734 92.6244 24.7903C92.7801 24.8434 92.9442 24.87 93.1165 24.87C93.2458 24.8701 93.3519 24.8635 93.4347 24.8502C93.5176 24.8337 93.5839 24.8204 93.6336 24.8105L93.8719 25.8646C93.7924 25.8944 93.6813 25.9242 93.5388 25.9539C93.3963 25.9871 93.2156 26.0036 92.9969 26.0035C92.6655 26.0034 92.3407 25.9321 92.0225 25.7895C91.7077 25.6469 91.4459 25.4297 91.2372 25.138C91.0318 24.8462 90.9291 24.4783 90.9293 24.0342L90.9314 16.4376Z" fill="#1D1E25"/>
</g>
<defs>
<filter id="filter0_d_1_2881" x="166.053" y="32.9336" width="116.007" height="82.0132" filterUnits="userSpaceOnUse" color-interpolation-filters="sRGB">
<feFlood flood-opacity="0" result="BackgroundImageFix"/>
<feColorMatrix in="SourceAlpha" type="matrix" values="0 0 0 0 0 0 0 0 0 0 0 0 0 0 0 0 0 0 127 0" result="hardAlpha"/>
<feOffset dy="4"/>
<feGaussianBlur stdDeviation="11"/>
<feComposite in2="hardAlpha" operator="out"/>
<feColorMatrix type="matrix" values="0 0 0 0 0.624722 0 0 0 0 0.6401 0 0 0 0 0.720833 0 0 0 0.25 0"/>
<feBlend mode="multiply" in2="BackgroundImageFix" result="effect1_dropShadow_1_2881"/>
<feBlend mode="normal" in="SourceGraphic" in2="effect1_dropShadow_1_2881" result="shape"/>
</filter>
<filter id="filter1_d_1_2881" x="168.052" y="82.9278" width="22" height="22" filterUnits="userSpaceOnUse" color-interpolation-filters="sRGB">
<feFlood flood-opacity="0" result="BackgroundImageFix"/>
<feColorMatrix in="SourceAlpha" type="matrix" values="0 0 0 0 0 0 0 0 0 0 0 0 0 0 0 0 0 0 127 0" result="hardAlpha"/>
<feOffset dy="2"/>
<feGaussianBlur stdDeviation="2"/>
<feColorMatrix type="matrix" values="0 0 0 0 0.268354 0 0 0 0 0.268354 0 0 0 0 0.31049 0 0 0 0.15 0"/>
<feBlend mode="normal" in2="BackgroundImageFix" result="effect1_dropShadow_1_2881"/>
<feBlend mode="normal" in="SourceGraphic" in2="effect1_dropShadow_1_2881" result="shape"/>
</filter>
<linearGradient id="paint0_linear_1_2881" x1="180.513" y1="54.9282" x2="180.462" y2="237.928" gradientUnits="userSpaceOnUse">
<stop stop-color="#2A85FF"/>
<stop offset="1" stop-color="#2A85FF" stop-opacity="0"/>
</linearGradient>
<clipPath id="clip0_1_2881">
<rect width="366" height="260" fill="white" transform="translate(0.577484 0.87854) rotate(0.0158183)"/>
</clipPath>
<clipPath id="clip1_1_2881">
<rect width="26.84" height="206" fill="white" transform="translate(325.693 54.9683) rotate(0.0158183)"/>
</clipPath>
<clipPath id="clip2_1_2881">
<rect width="29.28" height="206" fill="white" transform="translate(272.013 54.9535) rotate(0.0158183)"/>
</clipPath>
<clipPath id="clip3_1_2881">
<rect width="30.5" height="206" fill="white" transform="translate(217.113 54.9383) rotate(0.0158183)"/>
</clipPath>
<clipPath id="clip4_1_2881">
<rect width="48.8" height="206" fill="white" transform="translate(156.113 54.9214) rotate(0.0158183)"/>
</clipPath>
<clipPath id="clip5_1_2881">
<rect width="29.28" height="206" fill="white" transform="translate(114.633 54.91) rotate(0.0158183)"/>
</clipPath>
<clipPath id="clip6_1_2881">
<rect width="32.94" height="206" fill="white" transform="translate(57.2926 54.8942) rotate(0.0158183)"/>
</clipPath>
<clipPath id="clip7_1_2881">
<rect width="28.06" height="206" fill="white" transform="translate(4.83282 54.8797) rotate(0.0158183)"/>
</clipPath>
<clipPath id="clip8_1_2881">
<rect width="29.28" height="24" fill="white" transform="translate(-0.0844116 188.878) rotate(0.0158183)"/>
</clipPath>
<clipPath id="clip9_1_2881">
<rect width="29.28" height="24" fill="white" transform="translate(-0.0750427 154.878) rotate(0.0158183)"/>
</clipPath>
<clipPath id="clip10_1_2881">
<rect width="29.28" height="24" fill="white" transform="translate(-0.0656433 120.878) rotate(0.0158183)"/>
</clipPath>
<clipPath id="clip11_1_2881">
<rect width="29.28" height="24" fill="white" transform="translate(-0.0562744 86.8784) rotate(0.0158183)"/>
</clipPath>
</defs>
</svg>
