<svg width="128" height="128" viewBox="0 0 128 128" fill="none" xmlns="http://www.w3.org/2000/svg">
<rect x="50.0286" y="80.4426" width="3.85427" height="41.4334" transform="rotate(-135 50.0286 80.4426)" fill="#161A34"/>
<rect x="52.8914" y="51.9633" width="3.85427" height="26.9799" transform="rotate(-90 52.8914 51.9633)" fill="#161A34"/>
<rect x="79.8911" y="75.1088" width="3.85427" height="26.9799" transform="rotate(180 79.8911 75.1088)" fill="#161A34"/>
<path d="M71.4263 8.06445L70.8526 11.2714C70.7052 11.4077 70.4878 11.5474 70.2003 11.6904C69.9174 11.8303 69.5562 11.9303 69.1168 11.9906C68.6775 12.0509 68.1483 12.0257 67.5292 11.915C67.0024 11.8208 66.5356 11.646 66.1289 11.3907C65.7229 11.1316 65.3913 10.8004 65.134 10.3973C64.8806 9.99479 64.7117 9.53007 64.6274 9.00308C64.5438 8.47225 64.5591 7.88769 64.6733 7.24938L64.7775 6.66683C64.8909 6.03237 65.0709 5.48122 65.3173 5.01339C65.5682 4.54239 65.8745 4.16069 66.2364 3.86827C66.5982 3.57585 67.0064 3.37902 67.461 3.2778C67.9202 3.17342 68.4189 3.16938 68.9573 3.26567C69.6456 3.38879 70.194 3.60594 70.6026 3.91713C71.0158 4.22515 71.3093 4.60305 71.4832 5.05082C71.6571 5.49859 71.7302 5.98787 71.7028 6.51867L70.2839 6.26487C70.29 5.96438 70.2464 5.68674 70.1531 5.43195C70.0636 5.17785 69.9075 4.96343 69.6848 4.78867C69.4667 4.61076 69.1634 4.48706 68.775 4.4176C68.4405 4.35776 68.135 4.36859 67.8585 4.45008C67.582 4.53158 67.3372 4.68025 67.124 4.89608C66.9146 5.1126 66.736 5.39017 66.5881 5.7288C66.4402 6.06743 66.3257 6.46361 66.2446 6.91734L66.1383 7.51143C66.0558 7.97286 66.0306 8.39097 66.0627 8.76577C66.0987 9.14126 66.187 9.46856 66.3276 9.74767C66.472 10.0275 66.6674 10.2549 66.9139 10.4299C67.161 10.6011 67.4538 10.717 67.7922 10.7775C68.1229 10.8366 68.3988 10.8582 68.6199 10.8422C68.8417 10.8224 69.021 10.785 69.1578 10.7301C69.2991 10.6721 69.4109 10.6127 69.4932 10.552L69.7914 8.8851L68.0437 8.5725L68.2367 7.49391L71.4263 8.06445Z" fill="#161A34"/>
<path d="M78.9622 12.9371L78.5981 14.0448L74.2953 12.6304L74.6594 11.5227L78.9622 12.9371ZM77.3546 4.65568L74.6905 12.7603L73.2933 12.301L75.9574 4.19642L77.3546 4.65568ZM79.5875 9.1397L79.2289 10.2307L75.4883 9.00112L75.8469 7.91011L79.5875 9.1397ZM81.2343 5.93101L80.8684 7.04428L76.5934 5.63904L76.9594 4.52577L81.2343 5.93101Z" fill="#161A34"/>
<path d="M87.712 8.16681L83.8986 15.7983L82.5935 15.1462L86.4069 7.51465L87.712 8.16681ZM90.1073 9.36374L89.5835 10.412L83.5087 7.37649L84.0325 6.3282L90.1073 9.36374Z" fill="#161A34"/>
<path d="M98.2351 14.0078L93.1164 20.8328L91.9398 19.9504L97.0586 13.1254L98.2351 14.0078Z" fill="#161A34"/>
<path d="M106.491 20.8175L100.264 26.6495L99.259 25.5762L101.104 18.6059L96.6434 22.7836L95.638 21.7102L101.864 15.8782L102.87 16.9516L101.025 23.9384L105.493 19.7527L106.491 20.8175Z" fill="#161A34"/>
<path d="M114.794 30.8637L107.386 35.0942L106.663 33.8273L114.071 29.5968L114.794 30.8637ZM116.122 33.1891L115.105 33.7702L111.737 27.8729L112.755 27.2918L116.122 33.1891Z" fill="#161A34"/>
<path d="M116.491 42.9229L116.049 43.0793C115.441 43.2943 114.868 43.408 114.33 43.4204C113.792 43.4328 113.301 43.3517 112.858 43.177C112.416 43.006 112.033 42.7481 111.708 42.4032C111.386 42.057 111.137 41.6353 110.961 41.1382C110.787 40.6448 110.716 40.1624 110.748 39.6911C110.785 39.2222 110.92 38.7786 111.153 38.3604C111.386 37.9422 111.715 37.5649 112.138 37.2285C112.563 36.8957 113.08 36.6218 113.687 36.4068L114.129 36.2504C114.737 36.0353 115.309 35.9241 115.845 35.9167C116.384 35.9079 116.876 35.9909 117.319 36.1656C117.767 36.3427 118.151 36.6025 118.471 36.945C118.796 37.2898 119.046 37.709 119.221 38.2024C119.397 38.6996 119.467 39.1844 119.431 39.657C119.399 40.1283 119.264 40.5719 119.026 40.9877C118.791 41.4022 118.461 41.774 118.034 42.1031C117.613 42.4345 117.099 42.7078 116.491 42.9229ZM115.558 41.6928L116.011 41.5325C116.461 41.3735 116.841 41.1892 117.152 40.9796C117.468 40.7724 117.712 40.5431 117.884 40.2916C118.061 40.0424 118.166 39.7755 118.198 39.4908C118.233 39.2047 118.197 38.9089 118.088 38.6032C117.98 38.2976 117.823 38.0466 117.617 37.8502C117.414 37.6526 117.165 37.5108 116.87 37.4248C116.579 37.3412 116.245 37.3165 115.867 37.3506C115.494 37.3835 115.082 37.4794 114.633 37.6384L114.18 37.7987C113.731 37.9577 113.349 38.1427 113.034 38.3536C112.719 38.5644 112.472 38.7969 112.292 39.0511C112.118 39.3075 112.012 39.577 111.976 39.8593C111.943 40.1404 111.98 40.4338 112.088 40.7394C112.198 41.0487 112.354 41.3022 112.556 41.4998C112.763 41.6962 113.013 41.8355 113.307 41.9178C113.605 41.9988 113.942 42.0204 114.318 41.9826C114.696 41.9484 115.109 41.8518 115.558 41.6928Z" fill="#161A34"/>
<path d="M122.994 49.9823L123.252 51.4243L117.64 52.4281C117.002 52.5423 116.443 52.4995 115.962 52.2997C115.482 52.0998 115.09 51.7811 114.785 51.3435C114.486 50.9091 114.283 50.3996 114.179 49.8152C114.071 49.2115 114.082 48.6539 114.213 48.1424C114.347 47.6302 114.606 47.1991 114.987 46.8491C115.37 46.5029 115.88 46.2727 116.519 46.1585L122.131 45.1547L122.389 46.5966L116.777 47.6005C116.373 47.6727 116.053 47.8014 115.816 47.9866C115.583 48.1711 115.428 48.4013 115.35 48.6771C115.273 48.9528 115.265 49.2638 115.327 49.6098C115.388 49.9559 115.503 50.2429 115.671 50.4708C115.839 50.7026 116.065 50.8647 116.347 50.957C116.634 51.0487 116.979 51.0584 117.382 50.9862L122.994 49.9823Z" fill="#161A34"/>
<path d="M118.707 59.8258L118.736 61.2904C118.176 61.2543 117.675 61.1077 117.233 60.8505C116.794 60.5933 116.445 60.227 116.186 59.7514C115.927 59.2758 115.79 58.6944 115.777 58.007C115.767 57.4798 115.852 57.0034 116.031 56.578C116.214 56.1525 116.477 55.7861 116.818 55.4786C117.164 55.1711 117.583 54.9325 118.076 54.7628C118.569 54.597 119.122 54.5082 119.736 54.4964L120.444 54.4827C121.058 54.4709 121.614 54.5402 122.113 54.6908C122.612 54.8452 123.04 55.0714 123.398 55.3692C123.759 55.667 124.037 56.0269 124.233 56.449C124.429 56.875 124.532 57.3555 124.542 57.8906C124.555 58.5701 124.441 59.1467 124.2 59.6201C123.96 60.0936 123.621 60.4635 123.185 60.7298C122.748 61 122.246 61.1699 121.677 61.2395L121.648 59.7749C122.015 59.7288 122.327 59.6368 122.586 59.4989C122.846 59.365 123.041 59.1698 123.173 58.9133C123.309 58.6567 123.373 58.3234 123.365 57.9133C123.358 57.5774 123.29 57.2857 123.16 57.0382C123.03 56.7906 122.843 56.5852 122.597 56.422C122.352 56.2587 122.051 56.1375 121.694 56.0585C121.341 55.9832 120.938 55.95 120.485 55.9587L119.764 55.9727C119.334 55.9809 118.945 56.0256 118.594 56.1066C118.248 56.1914 117.952 56.3143 117.705 56.4754C117.458 56.6403 117.269 56.8471 117.137 57.0958C117.005 57.3445 116.942 57.6407 116.949 57.9844C116.957 58.4023 117.03 58.7388 117.168 58.994C117.305 59.2531 117.503 59.4466 117.759 59.5745C118.019 59.7062 118.335 59.79 118.707 59.8258Z" fill="#161A34"/>
<path d="M120.783 69.808L119.632 69.6203L120.361 65.1501L121.512 65.3378L120.783 69.808ZM124.97 66.2698L116.55 64.8965L116.786 63.4449L125.206 64.8183L124.97 66.2698ZM124.117 71.4976L115.697 70.1243L115.933 68.6785L124.353 70.0519L124.117 71.4976Z" fill="#161A34"/>
<path d="M108.782 98.3122L106.286 96.2181C106.242 96.0224 106.229 95.7643 106.248 95.4437C106.267 95.1287 106.36 94.7657 106.527 94.3546C106.693 93.9436 106.979 93.4971 107.383 93.0154C107.727 92.6054 108.111 92.2877 108.535 92.062C108.962 91.8389 109.414 91.7162 109.892 91.6938C110.367 91.6744 110.854 91.7594 111.353 91.9486C111.855 92.1404 112.354 92.4447 112.851 92.8615L113.304 93.2419C113.798 93.6562 114.186 94.0867 114.47 94.5333C114.753 94.9854 114.932 95.4411 115.005 95.9005C115.078 96.3599 115.046 96.8119 114.907 97.2566C114.769 97.7067 114.525 98.1413 114.173 98.5602C113.724 99.0958 113.262 99.4633 112.789 99.6628C112.316 99.8677 111.842 99.9341 111.367 99.862C110.892 99.7899 110.432 99.6097 109.985 99.3216L110.911 98.2175C111.169 98.3724 111.431 98.4728 111.699 98.5187C111.964 98.5677 112.227 98.539 112.49 98.4329C112.753 98.3323 113.011 98.1308 113.265 97.8286C113.483 97.5683 113.626 97.298 113.693 97.0176C113.76 96.7372 113.753 96.4509 113.672 96.1585C113.588 95.8692 113.436 95.576 113.216 95.2792C112.996 94.9824 112.71 94.6858 112.357 94.3895L111.894 94.0016C111.535 93.7003 111.185 93.4702 110.844 93.3115C110.501 93.1558 110.173 93.0694 109.861 93.0524C109.546 93.0383 109.252 93.0945 108.977 93.2211C108.706 93.3502 108.459 93.5465 108.238 93.8098C108.023 94.0671 107.866 94.2957 107.77 94.4954C107.677 94.6976 107.62 94.8717 107.6 95.0177C107.58 95.1692 107.575 95.2957 107.587 95.3973L108.884 96.4858L110.025 95.1258L110.865 95.8301L108.782 98.3122Z" fill="#161A34"/>
<path d="M100.527 102.657L99.749 101.788L103.121 98.7649L103.9 99.6331L100.527 102.657ZM108.507 105.395L102.812 99.0426L103.907 98.0608L109.602 104.413L108.507 105.395ZM103.506 105.093L102.74 104.238L105.672 101.609L106.438 102.465L103.506 105.093ZM105.466 108.121L104.683 107.248L108.034 104.245L108.816 105.117L105.466 108.121Z" fill="#161A34"/>
<path d="M100.455 112.45L95.7176 105.355L96.931 104.545L101.668 111.64L100.455 112.45ZM98.2275 113.937L97.5768 112.962L103.225 109.192L103.876 110.166L98.2275 113.937Z" fill="#161A34"/>
<path d="M90.2696 118.605L86.8877 110.773L88.2379 110.19L91.6198 118.022L90.2696 118.605Z" fill="#161A34"/>
<path d="M79.9481 122.455L78.0312 114.142L79.4643 113.811L84.5658 118.906L83.1926 112.951L84.6257 112.621L86.5427 120.934L85.1096 121.264L79.994 116.16L81.3698 122.127L79.9481 122.455Z" fill="#161A34"/>
<path d="M67.1002 124.557L67.1661 116.026L68.625 116.037L68.5592 124.568L67.1002 124.557ZM64.4226 124.536L64.4316 123.364L71.2225 123.417L71.2134 124.588L64.4226 124.536Z" fill="#161A34"/>
<path d="M55.7723 119.95L55.8584 119.489C55.9767 118.856 56.1654 118.303 56.4245 117.831C56.6835 117.358 56.9996 116.974 57.3728 116.679C57.7421 116.382 58.1575 116.179 58.6189 116.071C59.0795 115.966 59.569 115.962 60.0874 116.059C60.6019 116.155 61.0551 116.335 61.4469 116.599C61.8341 116.866 62.1503 117.205 62.3953 117.617C62.6404 118.028 62.8023 118.501 62.8812 119.037C62.9562 119.571 62.9345 120.155 62.8162 120.789L62.7301 121.25C62.6117 121.883 62.4215 122.434 62.1593 122.901C61.8964 123.373 61.5784 123.757 61.2052 124.052C60.8275 124.351 60.4102 124.554 59.9534 124.659C59.492 124.768 59.0041 124.774 58.4895 124.678C57.9711 124.581 57.5164 124.399 57.1253 124.131C56.7335 123.867 56.4174 123.528 56.1769 123.113C55.9357 122.703 55.7795 122.23 55.7084 121.697C55.6326 121.166 55.6539 120.584 55.7723 119.95ZM57.3041 119.759L57.2158 120.232C57.1283 120.7 57.0973 121.121 57.1228 121.496C57.1437 121.873 57.2198 122.199 57.3513 122.474C57.4782 122.752 57.6569 122.976 57.8874 123.147C58.1171 123.321 58.3914 123.437 58.7101 123.497C59.0288 123.557 59.3248 123.546 59.598 123.466C59.8705 123.39 60.1181 123.245 60.3406 123.033C60.5586 122.823 60.7474 122.546 60.9069 122.203C61.0658 121.863 61.189 121.459 61.2765 120.99L61.3647 120.518C61.4522 120.049 61.4836 119.626 61.4588 119.248C61.4341 118.87 61.3567 118.539 61.2267 118.257C61.0921 117.977 60.9119 117.751 60.686 117.578C60.4593 117.408 60.1866 117.294 59.8679 117.234C59.5454 117.174 59.2478 117.182 58.9753 117.258C58.702 117.338 58.4561 117.485 58.2374 117.698C58.018 117.916 57.8304 118.197 57.6747 118.541C57.5151 118.885 57.3916 119.291 57.3041 119.759Z" fill="#161A34"/>
<path d="M46.503 122.059L45.1259 121.56L47.0685 116.2C47.2894 115.59 47.6066 115.127 48.0201 114.812C48.4336 114.496 48.906 114.317 49.4372 114.272C49.9635 114.23 50.5057 114.311 51.064 114.513C51.6405 114.722 52.1174 115.011 52.4946 115.38C52.8704 115.753 53.1142 116.193 53.2259 116.699C53.3339 117.203 53.2774 117.76 53.0565 118.37L51.1139 123.73L49.7367 123.231L51.6793 117.871C51.819 117.485 51.8681 117.143 51.8264 116.846C51.7833 116.552 51.6619 116.302 51.4621 116.097C51.2623 115.891 50.9972 115.729 50.6666 115.609C50.3361 115.489 50.0302 115.445 49.7489 115.476C49.4639 115.506 49.2107 115.619 48.9894 115.818C48.7666 116.019 48.5854 116.313 48.4456 116.699L46.503 122.059Z" fill="#161A34"/>
<path d="M40.0332 113.362L38.7532 112.649C39.0658 112.184 39.4445 111.825 39.8893 111.572C40.3323 111.322 40.8245 111.205 41.3659 111.22C41.9073 111.235 42.4784 111.41 43.0791 111.744C43.5399 112 43.9091 112.313 44.1865 112.682C44.4621 113.055 44.6468 113.466 44.7406 113.916C44.8324 114.369 44.8278 114.852 44.7265 115.363C44.6218 115.873 44.4203 116.395 44.1221 116.931L43.7774 117.551C43.4792 118.087 43.1395 118.532 42.7583 118.888C42.3738 119.242 41.9629 119.498 41.5257 119.657C41.0866 119.82 40.6354 119.879 40.1722 119.836C39.7056 119.791 39.2384 119.638 38.7708 119.378C38.1769 119.048 37.7359 118.659 37.4478 118.213C37.1598 117.766 37.0105 117.288 36.9998 116.777C36.9857 116.264 37.0918 115.744 37.3179 115.217L38.5979 115.929C38.4535 116.269 38.3757 116.586 38.3645 116.879C38.3498 117.17 38.4202 117.437 38.5756 117.68C38.7291 117.927 38.9851 118.149 39.3435 118.349C39.637 118.512 39.9234 118.6 40.2026 118.612C40.4819 118.625 40.7538 118.566 41.0183 118.436C41.2828 118.306 41.5391 118.107 41.787 117.838C42.0296 117.571 42.2611 117.239 42.4814 116.843L42.8319 116.213C43.0408 115.838 43.1983 115.478 43.3044 115.135C43.4052 114.793 43.4481 114.475 43.4331 114.181C43.4147 113.884 43.3313 113.617 43.1827 113.377C43.0341 113.138 42.8097 112.935 42.5093 112.768C42.1441 112.565 41.8165 112.459 41.5267 112.449C41.2334 112.438 40.967 112.511 40.7275 112.668C40.4826 112.827 40.2512 113.058 40.0332 113.362Z" fill="#161A34"/>
<path d="M30.5682 110.262L31.3079 109.361L34.8091 112.234L34.0694 113.136L30.5682 110.262ZM31.5285 115.659L36.9407 109.064L38.0776 109.997L32.6654 116.592L31.5285 115.659ZM27.434 112.299L32.8462 105.704L33.9786 106.633L28.5663 113.228L27.434 112.299Z" fill="#161A34"/>
<path d="M11.9361 85.7652L14.9947 84.6436C15.1868 84.7022 15.417 84.8196 15.6855 84.9957C15.949 85.1695 16.2175 85.431 16.4911 85.78C16.7647 86.129 17.0097 86.5988 17.2262 87.1892C17.4105 87.6917 17.4949 88.1829 17.4795 88.6628C17.4604 89.1441 17.3417 89.5975 17.1232 90.0229C16.9034 90.4447 16.5872 90.8248 16.1746 91.1633C15.7584 91.5032 15.2459 91.7847 14.6371 92.008L14.0814 92.2117C13.4763 92.4336 12.9096 92.5561 12.3814 92.5792C11.8481 92.6 11.364 92.5279 10.9291 92.3628C10.4941 92.1978 10.1183 91.9445 9.80166 91.6029C9.48002 91.2591 9.22506 90.8304 9.03679 90.317C8.79607 89.6605 8.70707 89.0773 8.76977 88.5676C8.82747 88.0555 9.00582 87.6115 9.30484 87.2355C9.60386 86.8596 9.98949 86.5497 10.4617 86.3058L10.958 87.6591C10.6954 87.8053 10.4776 87.9829 10.3046 88.192C10.1303 88.3974 10.0238 88.6403 9.98518 88.9207C9.94154 89.1988 9.98764 89.5231 10.1235 89.8935C10.2405 90.2126 10.4038 90.471 10.6136 90.6686C10.8234 90.8663 11.0752 91.0028 11.3691 91.0781C11.6617 91.1497 11.9914 91.164 12.3584 91.121C12.7254 91.078 13.1253 90.9771 13.5581 90.8184L14.1247 90.6107C14.5648 90.4493 14.9386 90.2602 15.246 90.0435C15.5521 89.823 15.7903 89.5818 15.9604 89.3197C16.1293 89.0539 16.2271 88.7705 16.254 88.4694C16.2772 88.1696 16.2297 87.8584 16.1113 87.5356C15.9957 87.2202 15.8752 86.9711 15.7499 86.7882C15.6209 86.6067 15.4982 86.4707 15.3819 86.3802C15.2605 86.2874 15.1528 86.2208 15.0589 86.1803L13.4691 86.7633L14.0803 88.4301L13.0516 88.8074L11.9361 85.7652Z" fill="#161A34"/>
<path d="M12.2868 76.4905L13.4278 76.2502L14.3612 80.6823L13.2202 80.9226L12.2868 76.4905ZM5.92737 82.0334L14.2755 80.2752L14.5786 81.7144L6.23046 83.4725L5.92737 82.0334ZM8.68769 77.8533L9.81148 77.6166L10.6229 81.4696L9.49914 81.7063L8.68769 77.8533ZM5.08574 78.037L6.23246 77.7955L7.15983 82.1989L6.0131 82.4405L5.08574 78.037Z" fill="#161A34"/>
<path d="M3.80901 71.4022L12.324 70.8759L12.414 72.3321L3.89902 72.8584L3.80901 71.4022ZM3.64382 68.7295L4.81346 68.6572L5.23241 75.4353L4.06277 75.5076L3.64382 68.7295Z" fill="#161A34"/>
<path d="M3.57748 59.513L12.0518 60.4973L11.8821 61.9582L3.4078 60.9739L3.57748 59.513Z" fill="#161A34"/>
<path d="M5.37022 48.6979L13.5331 51.1777L13.1056 52.5849L6.14597 54.4695L11.9934 56.2459L11.5659 57.6531L3.40304 55.1733L3.83054 53.7661L10.8048 51.8737L4.94612 50.0939L5.37022 48.6979Z" fill="#161A34"/>
<path d="M9.87766 36.6169L17.2389 40.929L16.5015 42.1879L9.14022 37.8758L9.87766 36.6169ZM11.2311 34.3064L12.2423 34.8987L8.80976 40.7584L7.79861 40.1661L11.2311 34.3064Z" fill="#161A34"/>
<path d="M19.5648 29.02L19.9206 29.3252C20.4098 29.7449 20.7939 30.185 21.0729 30.6457C21.3519 31.1064 21.526 31.5723 21.5953 32.0435C21.6671 32.5117 21.6345 32.9727 21.4975 33.4264C21.3575 33.8776 21.1158 34.3033 20.7724 34.7035C20.4316 35.1008 20.0488 35.4029 19.6242 35.6099C19.1992 35.8114 18.7472 35.9152 18.2685 35.9214C17.7897 35.9275 17.2989 35.8307 16.7961 35.6309C16.2958 35.4282 15.801 35.1169 15.3119 34.6973L14.9561 34.3921C14.4669 33.9724 14.0856 33.532 13.8121 33.0709C13.5356 32.6073 13.3627 32.1399 13.2934 31.6687C13.2237 31.192 13.2576 30.7295 13.3951 30.2813C13.5322 29.8276 13.7711 29.4021 14.1119 29.0049C14.4553 28.6046 14.8408 28.3023 15.2684 28.0978C15.693 27.8908 16.1449 27.787 16.6241 27.7864C17.1003 27.7832 17.5873 27.8845 18.0851 28.0902C18.5824 28.2904 19.0757 28.6003 19.5648 29.02ZM18.963 30.4414L18.5983 30.1286C18.2366 29.8183 17.8874 29.5804 17.5506 29.415C17.2135 29.2441 16.893 29.1468 16.5892 29.1229C16.285 29.0935 16.0015 29.136 15.7388 29.2503C15.4731 29.362 15.2347 29.5409 15.0236 29.787C14.8125 30.033 14.6732 30.2944 14.6057 30.571C14.5352 30.8451 14.5364 31.1318 14.6091 31.4309C14.6814 31.7246 14.8264 32.0265 15.0441 32.3368C15.2587 32.6445 15.5469 32.9535 15.9086 33.2638L16.2733 33.5766C16.635 33.8869 16.9857 34.126 17.3254 34.294C17.6651 34.4619 17.9899 34.5603 18.2996 34.5893C18.6089 34.6127 18.8951 34.5701 19.1582 34.4613C19.4184 34.35 19.6541 34.1713 19.8652 33.9252C20.0788 33.6762 20.2209 33.4146 20.2913 33.1405C20.3588 32.8639 20.3549 32.5774 20.2797 32.2812C20.2014 31.9825 20.0522 31.6795 19.832 31.3722C19.6144 31.062 19.3247 30.7517 18.963 30.4414Z" fill="#161A34"/>
<path d="M22.3677 19.9303L23.4864 18.9846L27.167 23.3386C27.5856 23.8338 27.8288 24.3392 27.8964 24.8549C27.9641 25.3706 27.8848 25.8698 27.6587 26.3525C27.4329 26.8298 27.0934 27.26 26.6399 27.6434C26.1716 28.0393 25.6833 28.3088 25.1752 28.4519C24.6645 28.5921 24.162 28.5846 23.6678 28.4296C23.1765 28.272 22.7216 27.9456 22.303 27.4504L18.6224 23.0965L19.7411 22.1508L23.4217 26.5047C23.6864 26.8179 23.9583 27.0306 24.2372 27.1427C24.5135 27.2517 24.7905 27.2708 25.0681 27.1998C25.3457 27.1288 25.6187 26.9799 25.8872 26.7529C26.1557 26.5259 26.3465 26.2828 26.4597 26.0234C26.5759 25.7615 26.6032 25.4852 26.5416 25.1945C26.4775 24.9009 26.3131 24.5975 26.0483 24.2842L22.3677 19.9303Z" fill="#161A34"/>
<path d="M33.1817 18.602L34.4374 17.8477C34.6849 18.3507 34.8074 18.858 34.805 19.3699C34.8006 19.8783 34.6568 20.3634 34.3737 20.8251C34.0905 21.2869 33.6543 21.6947 33.0649 22.0488C32.6129 22.3203 32.1578 22.4844 31.6996 22.5409C31.2394 22.594 30.7908 22.549 30.354 22.4059C29.9151 22.2594 29.4993 22.0148 29.1065 21.672C28.7171 21.3272 28.3645 20.8919 28.0487 20.3662L27.6836 19.7585C27.3678 19.2327 27.1508 18.716 27.0327 18.2083C26.9179 17.6985 26.9005 17.2145 26.9807 16.7563C27.0588 16.2947 27.2321 15.8739 27.5005 15.4939C27.7723 15.1119 28.1376 14.7831 28.5963 14.5075C29.179 14.1575 29.7356 13.969 30.2661 13.9419C30.7967 13.9148 31.2861 14.0241 31.7344 14.2697C32.1861 14.5133 32.5839 14.8645 32.9278 15.3232L31.6721 16.0775C31.4495 15.7829 31.2139 15.5576 30.9653 15.4016C30.72 15.2436 30.4534 15.1714 30.1653 15.185C29.8752 15.1952 29.5544 15.3059 29.2028 15.5171C28.9148 15.6901 28.6959 15.8945 28.5459 16.1304C28.396 16.3663 28.3114 16.6313 28.2921 16.9254C28.2728 17.2195 28.3179 17.541 28.4273 17.89C28.538 18.2336 28.71 18.5996 28.9434 18.9881L29.3145 19.6059C29.5357 19.9742 29.7687 20.29 30.0134 20.5531C30.2594 20.8109 30.5137 21.0067 30.7764 21.1406C31.0424 21.2724 31.3161 21.3335 31.5974 21.324C31.8788 21.3145 32.1668 21.2212 32.4615 21.0442C32.8198 20.829 33.0752 20.5981 33.2278 20.3514C33.3838 20.1028 33.4533 19.8355 33.4364 19.5494C33.4209 19.258 33.336 18.9422 33.1817 18.602Z" fill="#161A34"/>
<path d="M40.4693 11.9803L40.883 13.0705L36.6484 14.6775L36.2347 13.5874L40.4693 11.9803ZM35.3103 10.1278L38.3373 18.1039L36.9623 18.6258L33.9353 10.6496L35.3103 10.1278ZM40.2625 8.24835L43.2895 16.2245L41.92 16.7443L38.893 8.7681L40.2625 8.24835Z" fill="#161A34"/>
</svg>
